<svg xmlns="http://www.w3.org/2000/svg" version="1.1" viewBox="-100 -80 1731 961" width="1731" height="961"><rect x="-100" y="-80" width="1731" height="961" fill="#FFFFFF"/><defs/><g><rect x="10" y="6.50" width="1454.39" height="17" fill="#00000000" stroke="#00000000" stroke-width="1"/><circle cx="357.60" cy="38.50" r="10" fill="#111111" stroke="#222222" stroke-width="1"/><rect x="242.38" y="68.50" width="230.44" height="37" rx="8" ry="8" fill="#7ACFF5" stroke="#222222" stroke-width="0.50"/><text x="252.38" y="92.50" font-size="15" fill="#111111" xml:space="preserve" style="white-space: pre" font-family="Arial">Tiếp nhận / phát sinh hoạt động</text><rect x="230.04" y="125.50" width="255.13" height="37" rx="8" ry="8" fill="#7ACFF5" stroke="#222222" stroke-width="0.50"/><text x="240.04" y="149.50" font-size="15" fill="#111111" xml:space="preserve" style="white-space: pre" font-family="Arial">Kiểm quyền, target và idempotency</text><polygon points="284.21,182.50 431.00,182.50 443.00,194.50 431.00,206.50 284.21,206.50 272.21,194.50 284.21,182.50" fill="#7ACFF5" stroke="#222222" stroke-width="0.50"/><text x="284.21" y="200" font-size="15" fill="#111111" xml:space="preserve" style="white-space: pre" font-family="Arial">Event tính hoạt động?</text><text x="253.04" y="191.50" font-size="15" fill="#111111" xml:space="preserve" style="white-space: pre" font-family="Arial">Có</text><text x="443.00" y="191.50" font-size="15" fill="#111111" xml:space="preserve" style="white-space: pre" font-family="Arial">Không</text><rect x="73.37" y="216.50" width="237.62" height="37" rx="8" ry="8" fill="#7ACFF5" stroke="#222222" stroke-width="0.50"/><text x="83.37" y="240.50" font-size="15" fill="#111111" xml:space="preserve" style="white-space: pre" font-family="Arial">Chốt activity_date theo timezone</text><rect x="16" y="273.50" width="352.36" height="54" rx="8" ry="8" fill="#7ACFF5" stroke="#222222" stroke-width="0.50"/><text x="26" y="297.50" font-size="15" fill="#111111" xml:space="preserve" style="white-space: pre" font-family="Arial">Lưu VIEW_SLIDE / STUDY_TASK_COMPLETED</text><text x="26" y="314.50" font-size="15" fill="#111111" xml:space="preserve" style="white-space: pre" font-family="Arial">hoặc QUIZ_COMPLETED</text><rect x="79.30" y="347.50" width="225.77" height="37" rx="8" ry="8" fill="#7ACFF5" stroke="#222222" stroke-width="0.50"/><text x="89.30" y="371.50" font-size="15" fill="#111111" xml:space="preserve" style="white-space: pre" font-family="Arial">Tổng hợp Streak và Daily Goal</text><rect x="93.38" y="455" width="197.60" height="37" rx="8" ry="8" fill="#7ACFF5" stroke="#222222" stroke-width="0.50"/><text x="103.38" y="479" font-size="15" fill="#111111" xml:space="preserve" style="white-space: pre" font-family="Arial">Cập nhật viewing progress</text><polygon points="142.99,404.50 241.36,404.50 253.36,416.50 241.36,428.50 142.99,428.50 130.99,416.50 142.99,404.50" fill="#7ACFF5" stroke="#222222" stroke-width="0.50"/><text x="196.18" y="442.50" font-size="15" fill="#111111" xml:space="preserve" style="white-space: pre" font-family="Arial">Có</text><text x="142.99" y="422" font-size="15" fill="#111111" xml:space="preserve" style="white-space: pre" font-family="Arial">VIEW_SLIDE?</text><text x="253.36" y="413.50" font-size="15" fill="#111111" xml:space="preserve" style="white-space: pre" font-family="Arial">Không</text><polygon points="192.18,512 204.18,524 192.18,536 180.18,524 192.18,512" fill="#7ACFF5" stroke="#222222" stroke-width="0.50"/><rect x="388.36" y="216.50" width="269.34" height="37" rx="8" ry="8" fill="#7ACFF5" stroke="#222222" stroke-width="0.50"/><text x="398.36" y="240.50" font-size="15" fill="#111111" xml:space="preserve" style="white-space: pre" font-family="Arial">Không cộng login, Note hoặc ASK_AI</text><polygon points="357.60,542 369.60,554 357.60,566 345.60,554 357.60,542" fill="#7ACFF5" stroke="#222222" stroke-width="0.50"/><line x1="10" y1="6.50" x2="10" y2="791" stroke="#000000" stroke-width="1.50"/><rect x="667.70" y="586" width="300.06" height="37" rx="8" ry="8" fill="#7ACFF5" stroke="#222222" stroke-width="0.50"/><text x="677.70" y="610" font-size="15" fill="#111111" xml:space="preserve" style="white-space: pre" font-family="Arial">Hiển thị Dashboard tổng quan và từng lớp</text><rect x="734.44" y="643" width="166.56" height="37" rx="8" ry="8" fill="#7ACFF5" stroke="#222222" stroke-width="0.50"/><text x="744.44" y="667" font-size="15" fill="#111111" xml:space="preserve" style="white-space: pre" font-family="Arial">Cho mở / thu các khối</text><line x1="661.70" y1="6.50" x2="661.70" y2="791" stroke="#000000" stroke-width="1.50"/><rect x="977.75" y="700" width="245.10" height="37" rx="8" ry="8" fill="#7ACFF5" stroke="#222222" stroke-width="0.50"/><text x="987.75" y="724" font-size="15" fill="#111111" xml:space="preserve" style="white-space: pre" font-family="Arial">Xem tiến độ, Streak và Daily Goal</text><path d="M1131.30,747 L1131.30,765 L1111.30,769 L1131.30,773 L1131.30,791 A0,0 0 0 0 1131.30,791 L1458.31,791 A0,0 0 0 0 1458.31,791 L1458.31,757 L1448.31,747 L1131.30,747 A0,0 0 0 0 1131.30,747" fill="#FFF9D9" stroke="#555555" stroke-width="0.50"/><path d="M1448.31,747 L1448.31,757 L1458.31,757 L1448.31,747" fill="#FFF9D9" stroke="#555555" stroke-width="0.50"/><text x="1137.30" y="766" font-size="15" fill="#111111" xml:space="preserve" style="white-space: pre" font-family="Arial">Không cần Daily Goal 100% để duy trì Streak.</text><text x="1137.30" y="783" font-size="15" fill="#111111" xml:space="preserve" style="white-space: pre" font-family="Arial">Không suy luận Topic Mastery.</text><circle cx="1100.30" cy="769" r="11" fill="#00000000" stroke="#222222" stroke-width="1"/><circle cx="1100.30" cy="769" r="6" fill="#222222" stroke="#222222" stroke-width="1"/><line x1="971.75" y1="6.50" x2="971.75" y2="791" stroke="#000000" stroke-width="1.50"/><line x1="1463.31" y1="6.50" x2="1463.31" y2="791" stroke="#000000" stroke-width="1.50"/><line x1="357.60" y1="48.50" x2="357.60" y2="68.50" stroke="#222222" stroke-width="1"/><polygon points="353.60,58.50 357.60,68.50 361.60,58.50 357.60,62.50" fill="#222222" stroke="#222222" stroke-width="1"/><line x1="357.60" y1="105.50" x2="357.60" y2="125.50" stroke="#222222" stroke-width="1"/><polygon points="353.60,115.50 357.60,125.50 361.60,115.50 357.60,119.50" fill="#222222" stroke="#222222" stroke-width="1"/><line x1="192.18" y1="253.50" x2="192.18" y2="273.50" stroke="#222222" stroke-width="1"/><polygon points="188.18,263.50 192.18,273.50 196.18,263.50 192.18,267.50" fill="#222222" stroke="#222222" stroke-width="1"/><line x1="192.18" y1="327.50" x2="192.18" y2="347.50" stroke="#222222" stroke-width="1"/><polygon points="188.18,337.50 192.18,347.50 196.18,337.50 192.18,341.50" fill="#222222" stroke="#222222" stroke-width="1"/><line x1="192.18" y1="428.50" x2="192.18" y2="455" stroke="#222222" stroke-width="1"/><polygon points="188.18,445 192.18,455 196.18,445 192.18,449" fill="#222222" stroke="#222222" stroke-width="1"/><line x1="253.36" y1="416.50" x2="300.98" y2="416.50" stroke="#222222" stroke-width="1"/><polygon points="296.98,463.50 300.98,473.50 304.98,463.50 300.98,467.50" fill="#222222" stroke="#222222" stroke-width="1"/><line x1="300.98" y1="416.50" x2="300.98" y2="524" stroke="#222222" stroke-width="1"/><line x1="300.98" y1="524" x2="204.18" y2="524" stroke="#222222" stroke-width="1"/><polygon points="214.18,520 204.18,524 214.18,528 210.18,524" fill="#222222" stroke="#222222" stroke-width="1"/><line x1="192.18" y1="492" x2="192.18" y2="512" stroke="#222222" stroke-width="1"/><polygon points="188.18,502 192.18,512 196.18,502 192.18,506" fill="#222222" stroke="#222222" stroke-width="1"/><line x1="192.18" y1="384.50" x2="192.18" y2="404.50" stroke="#222222" stroke-width="1"/><polygon points="188.18,394.50 192.18,404.50 196.18,394.50 192.18,398.50" fill="#222222" stroke="#222222" stroke-width="1"/><line x1="272.21" y1="194.50" x2="192.18" y2="194.50" stroke="#222222" stroke-width="1"/><line x1="192.18" y1="194.50" x2="192.18" y2="216.50" stroke="#222222" stroke-width="1"/><polygon points="188.18,206.50 192.18,216.50 196.18,206.50 192.18,210.50" fill="#222222" stroke="#222222" stroke-width="1"/><line x1="443.00" y1="194.50" x2="523.03" y2="194.50" stroke="#222222" stroke-width="1"/><line x1="523.03" y1="194.50" x2="523.03" y2="216.50" stroke="#222222" stroke-width="1"/><polygon points="519.03,206.50 523.03,216.50 527.03,206.50 523.03,210.50" fill="#222222" stroke="#222222" stroke-width="1"/><line x1="192.18" y1="536" x2="192.18" y2="554" stroke="#222222" stroke-width="1"/><line x1="192.18" y1="554" x2="345.60" y2="554" stroke="#222222" stroke-width="1"/><polygon points="335.60,550 345.60,554 335.60,558 339.60,554" fill="#222222" stroke="#222222" stroke-width="1"/><line x1="523.03" y1="253.50" x2="523.03" y2="554" stroke="#222222" stroke-width="1"/><line x1="523.03" y1="554" x2="369.60" y2="554" stroke="#222222" stroke-width="1"/><polygon points="379.60,550 369.60,554 379.60,558 375.60,554" fill="#222222" stroke="#222222" stroke-width="1"/><line x1="357.60" y1="162.50" x2="357.60" y2="182.50" stroke="#222222" stroke-width="1"/><polygon points="353.60,172.50 357.60,182.50 361.60,172.50 357.60,176.50" fill="#222222" stroke="#222222" stroke-width="1"/><line x1="817.72" y1="623" x2="817.72" y2="643" stroke="#222222" stroke-width="1"/><polygon points="813.72,633 817.72,643 821.72,633 817.72,637" fill="#222222" stroke="#222222" stroke-width="1"/><line x1="1100.30" y1="737" x2="1100.30" y2="758" stroke="#222222" stroke-width="1"/><polygon points="1096.30,748 1100.30,758 1104.30,748 1100.30,752" fill="#222222" stroke="#222222" stroke-width="1"/><line x1="357.60" y1="566" x2="357.60" y2="571" stroke="#222222" stroke-width="1"/><line x1="357.60" y1="571" x2="817.72" y2="571" stroke="#222222" stroke-width="1"/><line x1="817.72" y1="571" x2="817.72" y2="586" stroke="#222222" stroke-width="1"/><polygon points="813.72,576 817.72,586 821.72,576 817.72,580" fill="#222222" stroke="#222222" stroke-width="1"/><line x1="817.72" y1="680" x2="817.72" y2="685" stroke="#222222" stroke-width="1"/><line x1="817.72" y1="685" x2="1100.30" y2="685" stroke="#222222" stroke-width="1"/><line x1="1100.30" y1="685" x2="1100.30" y2="700" stroke="#222222" stroke-width="1"/><polygon points="1096.30,690 1100.30,700 1104.30,690 1100.30,694" fill="#222222" stroke="#222222" stroke-width="1"/><text x="288.74" y="20.50" font-size="15" fill="#111111" xml:space="preserve" style="white-space: pre" font-family="Arial">Java Backend</text><text x="786.71" y="20.50" font-size="15" fill="#111111" xml:space="preserve" style="white-space: pre" font-family="Arial">Frontend</text><text x="1191.68" y="20.50" font-size="15" fill="#111111" xml:space="preserve" style="white-space: pre" font-family="Arial">Student</text><?plantuml-src ZLHDRzD04BtxLuo44ArKbGQfe2O7bEO3GZyeIbe-Bj76tjXBx5rtFKwKAXVK8wSUE20EK77W09MGG4AA3no2-1_-9ymwQMkbBUrURE-yUVlcpOxlm0xpEI8l0hDHz0KEIz1X4NT0IK2Fmvw8OkOJJ3D7k0540n7uJ7A8M13wz8Z3q1U4xmmpVAZLQsuZg87aUjcAUaA6b4k97dFKG4WNkioFU2xY2ybn679G6ZsL2tIOtNErYgLJKRxICF04vXCTtcMnZtKbSPi57CfQCF_oU5CSS2YiNXwSijygP2i7AMkj1hFWlMpbWpE_rkT4tdfGhjJhgvSXbNQulewlAbYWf7DpsjE46x4taUchwvs1QcU7Ne3GFK21GidrQtfp3lolhcs5_4AfzNfzhResZyhph6OhXyZIRQNfqa7XlZLwmleC336NpiYAJDLMiINIyUyGf9UEJoJSXT2R72D4GdhWgNHCxt-EqkIzT4jMSKEaoM40-_4mJTx89I06boFq9vz0E3m8IP6qXoLBT66XrkSI0ISd5uWUBfgXaB1GcVnOj02A5IzDZl1isDeEGsuW2b04_419NZAmpR_VOzXhr9wtcvkDQesqDbkxrPVjLhcvqQuytThPhBLgLSiSzik6PxkDL-Ux6K4hJTxHgD5fdqDeekQibsclCk4FuP5Yle4PyUUdp8irSicfcM5Kk-3P_DA8kvf7aM7WDCgmiE5DVahNv93TeclDxnQdhs1dfe2lN46Mcgx2h0HJLxbHigRvexgciSnQLtni6c7-HMdobkH7NaSnxG1E2zoFcSmAe--lXZfDFeJKlegd84YJZ-GSUZ7OasCRUiPxKR96JOmTwXYHl-016K-tGauxjdILLn6gq996i1QkXzPPGUClCWU4mihAxOpg49oO_eXwycr6kNoQ4z6-7sTNiAL2OSCMYv3huR8f7imP_m00?></g><g data-activity-frame="true" fill="none" stroke="#000000" stroke-width="1.50"><line x1="10" y1="6.5" x2="1463.31" y2="6.5"/><line x1="10" y1="34.5" x2="1463.31" y2="34.5"/><line x1="10" y1="791" x2="1463.31" y2="791"/></g></svg>