<svg xmlns="http://www.w3.org/2000/svg" version="1.1" viewBox="-100 -80 1522 800" width="1522" height="800"><rect x="-100" y="-80" width="1522" height="800" fill="#FFFFFF"/><defs/><g><rect x="10" y="6.50" width="1245.54" height="17" fill="#00000000" stroke="#00000000" stroke-width="1"/><circle cx="255.98" cy="38.50" r="10" fill="#111111" stroke="#222222" stroke-width="1"/><rect x="178.11" y="68.50" width="155.74" height="37" rx="8" ry="8" fill="#7ACFF5" stroke="#222222" stroke-width="0.50"/><text x="188.11" y="92.50" font-size="15" fill="#111111" xml:space="preserve" style="white-space: pre" font-family="Arial">Mở Kế hoạch &amp; Lịch</text><rect x="173.93" y="125.50" width="164.10" height="37" rx="8" ry="8" fill="#7ACFF5" stroke="#222222" stroke-width="0.50"/><text x="183.93" y="149.50" font-size="15" fill="#111111" xml:space="preserve" style="white-space: pre" font-family="Arial">Chọn tuần hoặc ô giờ</text><path d="M374.37,179 L374.37,197 L354.37,201 L374.37,205 L374.37,223 A0,0 0 0 0 374.37,223 L607.22,223 A0,0 0 0 0 607.22,223 L607.22,189 L597.22,179 L374.37,179 A0,0 0 0 0 374.37,179" fill="#FFF9D9" stroke="#555555" stroke-width="0.50"/><path d="M597.22,179 L597.22,189 L607.22,189 L597.22,179" fill="#FFF9D9" stroke="#555555" stroke-width="0.50"/><text x="380.37" y="198" font-size="15" fill="#111111" xml:space="preserve" style="white-space: pre" font-family="Arial">Student chủ động lập lịch.</text><text x="380.37" y="215" font-size="15" fill="#111111" xml:space="preserve" style="white-space: pre" font-family="Arial">AI không tự điều phối kế hoạch.</text><rect x="157.60" y="182.50" width="196.77" height="37" rx="8" ry="8" fill="#7ACFF5" stroke="#222222" stroke-width="0.50"/><text x="167.60" y="206.50" font-size="15" fill="#111111" xml:space="preserve" style="white-space: pre" font-family="Arial">Nhập task ôn tập / lịch học</text><polygon points="37,458 133.72,458 145.72,470 133.72,482 37,482 25,470 37,458" fill="#7ACFF5" stroke="#222222" stroke-width="0.50"/><text x="89.36" y="496" font-size="15" fill="#111111" xml:space="preserve" style="white-space: pre" font-family="Arial">Có</text><text x="37" y="475.50" font-size="15" fill="#111111" xml:space="preserve" style="white-space: pre" font-family="Arial">Hoàn tất task?</text><text x="145.72" y="467" font-size="15" fill="#111111" xml:space="preserve" style="white-space: pre" font-family="Arial">Chưa</text><rect x="347.82" y="344" width="157.57" height="37" rx="8" ry="8" fill="#7ACFF5" stroke="#222222" stroke-width="0.50"/><text x="357.82" y="368" font-size="15" fill="#111111" xml:space="preserve" style="white-space: pre" font-family="Arial">Nhận lỗi field/access</text><circle cx="426.61" cy="412" r="11" fill="#00000000" stroke="#222222" stroke-width="1"/><circle cx="426.61" cy="412" r="6" fill="#222222" stroke="#222222" stroke-width="1"/><line x1="10" y1="6.50" x2="10" y2="630" stroke="#000000" stroke-width="1.50"/><rect x="830.44" y="243" width="216.60" height="37" rx="8" ry="8" fill="#7ACFF5" stroke="#222222" stroke-width="0.50"/><text x="840.44" y="267" font-size="15" fill="#111111" xml:space="preserve" style="white-space: pre" font-family="Arial">Kiểm owner, field và thời gian</text><polygon points="912.15,300 965.34,300 977.34,312 965.34,324 912.15,324 900.15,312 912.15,300" fill="#7ACFF5" stroke="#222222" stroke-width="0.50"/><text x="912.15" y="317.50" font-size="15" fill="#111111" xml:space="preserve" style="white-space: pre" font-family="Arial">Hợp lệ?</text><text x="880.97" y="309" font-size="15" fill="#111111" xml:space="preserve" style="white-space: pre" font-family="Arial">Có</text><text x="977.34" y="309" font-size="15" fill="#111111" xml:space="preserve" style="white-space: pre" font-family="Arial">Không</text><rect x="689.73" y="344" width="156.78" height="37" rx="8" ry="8" fill="#7ACFF5" stroke="#222222" stroke-width="0.50"/><text x="699.73" y="368" font-size="15" fill="#111111" xml:space="preserve" style="white-space: pre" font-family="Arial">Lưu Study Plan Item</text><rect x="618.22" y="508.50" width="299.80" height="37" rx="8" ry="8" fill="#7ACFF5" stroke="#222222" stroke-width="0.50"/><text x="628.22" y="532.50" font-size="15" fill="#111111" xml:space="preserve" style="white-space: pre" font-family="Arial">Ghi STUDY_TASK_COMPLETED một lần</text><circle cx="768.12" cy="576.50" r="11" fill="#00000000" stroke="#222222" stroke-width="1"/><circle cx="768.12" cy="576.50" r="6" fill="#222222" stroke="#222222" stroke-width="1"/><circle cx="888.04" cy="470" r="11" fill="#00000000" stroke="#222222" stroke-width="1"/><circle cx="888.04" cy="470" r="6" fill="#222222" stroke="#222222" stroke-width="1"/><line x1="612.22" y1="6.50" x2="612.22" y2="630" stroke="#000000" stroke-width="1.50"/><rect x="1057.05" y="401" width="193.42" height="37" rx="8" ry="8" fill="#7ACFF5" stroke="#222222" stroke-width="0.50"/><text x="1067.05" y="425" font-size="15" fill="#111111" xml:space="preserve" style="white-space: pre" font-family="Arial">Hiển thị item trên lịch tuần</text><line x1="1051.05" y1="6.50" x2="1051.05" y2="630" stroke="#000000" stroke-width="1.50"/><line x1="1254.46" y1="6.50" x2="1254.46" y2="630" stroke="#000000" stroke-width="1.50"/><line x1="255.98" y1="48.50" x2="255.98" y2="68.50" stroke="#222222" stroke-width="1"/><polygon points="251.98,58.50 255.98,68.50 259.98,58.50 255.98,62.50" fill="#222222" stroke="#222222" stroke-width="1"/><line x1="255.98" y1="105.50" x2="255.98" y2="125.50" stroke="#222222" stroke-width="1"/><polygon points="251.98,115.50 255.98,125.50 259.98,115.50 255.98,119.50" fill="#222222" stroke="#222222" stroke-width="1"/><line x1="255.98" y1="162.50" x2="255.98" y2="182.50" stroke="#222222" stroke-width="1"/><polygon points="251.98,172.50 255.98,182.50 259.98,172.50 255.98,176.50" fill="#222222" stroke="#222222" stroke-width="1"/><line x1="426.61" y1="381" x2="426.61" y2="401" stroke="#222222" stroke-width="1"/><polygon points="422.61,391 426.61,401 430.61,391 426.61,395" fill="#222222" stroke="#222222" stroke-width="1"/><line x1="768.12" y1="545.50" x2="768.12" y2="565.50" stroke="#222222" stroke-width="1"/><polygon points="764.12,555.50 768.12,565.50 772.12,555.50 768.12,559.50" fill="#222222" stroke="#222222" stroke-width="1"/><line x1="900.15" y1="312" x2="768.12" y2="312" stroke="#222222" stroke-width="1"/><line x1="768.12" y1="312" x2="768.12" y2="344" stroke="#222222" stroke-width="1"/><polygon points="764.12,334 768.12,344 772.12,334 768.12,338" fill="#222222" stroke="#222222" stroke-width="1"/><line x1="938.74" y1="280" x2="938.74" y2="300" stroke="#222222" stroke-width="1"/><polygon points="934.74,290 938.74,300 942.74,290 938.74,294" fill="#222222" stroke="#222222" stroke-width="1"/><line x1="255.98" y1="219.50" x2="255.98" y2="228" stroke="#222222" stroke-width="1"/><line x1="255.98" y1="228" x2="938.74" y2="228" stroke="#222222" stroke-width="1"/><line x1="938.74" y1="228" x2="938.74" y2="243" stroke="#222222" stroke-width="1"/><polygon points="934.74,233 938.74,243 942.74,233 938.74,237" fill="#222222" stroke="#222222" stroke-width="1"/><line x1="768.12" y1="381" x2="768.12" y2="386" stroke="#222222" stroke-width="1"/><line x1="768.12" y1="386" x2="1153.75" y2="386" stroke="#222222" stroke-width="1"/><line x1="1153.75" y1="386" x2="1153.75" y2="401" stroke="#222222" stroke-width="1"/><polygon points="1149.75,391 1153.75,401 1157.75,391 1153.75,395" fill="#222222" stroke="#222222" stroke-width="1"/><line x1="85.36" y1="482" x2="85.36" y2="495.25" stroke="#222222" stroke-width="1"/><line x1="85.36" y1="495.25" x2="768.12" y2="495.25" stroke="#222222" stroke-width="1"/><line x1="768.12" y1="495.25" x2="768.12" y2="508.50" stroke="#222222" stroke-width="1"/><polygon points="764.12,498.50 768.12,508.50 772.12,498.50 768.12,502.50" fill="#222222" stroke="#222222" stroke-width="1"/><line x1="1153.75" y1="438" x2="1153.75" y2="443" stroke="#222222" stroke-width="1"/><line x1="1153.75" y1="443" x2="85.36" y2="443" stroke="#222222" stroke-width="1"/><line x1="85.36" y1="443" x2="85.36" y2="458" stroke="#222222" stroke-width="1"/><polygon points="81.36,448 85.36,458 89.36,448 85.36,452" fill="#222222" stroke="#222222" stroke-width="1"/><line x1="977.34" y1="312" x2="989.34" y2="312" stroke="#222222" stroke-width="1"/><line x1="989.34" y1="312" x2="989.34" y2="330" stroke="#222222" stroke-width="1"/><line x1="989.34" y1="330" x2="426.61" y2="330" stroke="#222222" stroke-width="1"/><line x1="426.61" y1="330" x2="426.61" y2="344" stroke="#222222" stroke-width="1"/><polygon points="422.61,334 426.61,344 430.61,334 426.61,338" fill="#222222" stroke="#222222" stroke-width="1"/><text x="285.26" y="20.50" font-size="15" fill="#111111" xml:space="preserve" style="white-space: pre" font-family="Arial">Student</text><text x="784.52" y="20.50" font-size="15" fill="#111111" xml:space="preserve" style="white-space: pre" font-family="Arial">Java Backend</text><text x="1122.74" y="20.50" font-size="15" fill="#111111" xml:space="preserve" style="white-space: pre" font-family="Arial">Frontend</text><?plantuml-src ZLHFQnD15B_FftXGq0QafKAL9WT9awwjQMCXLV1KfhkJp9ZPcMLsjY6IYtZmK3pq91x4YaX142eAGlRW8TBliT_4jxDftQRLTYv9vlt-lFURcTo6RIgPjQmArBTYNzXX3VPep0BG2Yndy5J42PK8CpGGlH3YWGWbLGnY6aOIFv8eaWBnUqE7Zun-pdmBUg2OMI1nNwW8kKZaDD03eNhGfJ9cfOeKYjbXn40RotMfi4VzVi_eH0KDBRM10HUsJ0nOboRIUbhPDWqPr8sWykfwHxnWiBHyTR5GdrjogmIf6wC7q-9Tjyh5QLwhCqtEtQytF6_vAgGs0JFNwJK53RKARYvxHhYHUiTIy-zvfw2rSzDB4Bm7LbYXrUerP_CN-D--sjgoIwDwdhVIN9b5bNMMtIeX7DtN1YyTBDqZeuvD0gRiYCJvmAIwbQKVe9MDVm7NsVYZp-4MR6RfWSzhfDhWMVe6htkIZO-L0_pqOV83UY9BtsEzpRFnrmWiZVkuZK3tSn6a4u2SxTU8mYR1Y1wtPEeEFfQEuVTXbhx3UoyThI0jaFe6z3cgzL0k_OOWD7kPG8IKGm7zKgiBXAa0SdaoUaJtAUI1uTQ8L5j8UXKMZ-qET0MJ0UnFZl0bOkS21w2gHaGNvjUpz9FpVlsWahzJ1VEDoVSA0QXkdfuaa7SyX6rysR1XMLZ3miWp-3QS3wBMSoVbX0y0Zpe4QoPVr5a6HNQETXuzW7FMaoCNsMVh4fprHyR5eVAjwaCkeBFpfFbiTwVUQUqs7czjRwxjh3KXn2nj7cNX1X1R7U4NXlyfgCbFJsZbmhuAH9SKrPRBkpBJP76yRfAteiXmaVe-Y-FSmCauaJy0?></g><g data-activity-frame="true" fill="none" stroke="#000000" stroke-width="1.50"><line x1="10" y1="6.5" x2="1254.46" y2="6.5"/><line x1="10" y1="34.5" x2="1254.46" y2="34.5"/><line x1="10" y1="630" x2="1254.46" y2="630"/></g></svg>