<svg xmlns="http://www.w3.org/2000/svg" version="1.1" viewBox="-100 -80 1493 811" width="1493" height="811"><rect x="-100" y="-80" width="1493" height="811" fill="#FFFFFF"/><defs/><g><g class="entity" data-qualified-name="CourseMaterialTutorController" id="ent0001" data-source-line="22"><rect x="45.99" y="7" width="596.90" height="77" rx="5" ry="5" fill="#7ACFF5" stroke="#222222" stroke-width="0.50"/><text x="286.90" y="26" font-size="15" fill="#111111" xml:space="preserve" style="white-space: pre" font-style="italic" font-family="Arial">«Java boundary»</text><text x="243.85" y="43" font-size="15" fill="#111111" xml:space="preserve" style="white-space: pre" font-family="Arial">CourseMaterialTutorController</text><line x1="46.99" y1="51" x2="641.89" y2="51" stroke="#222222" stroke-width="0.50"/><line x1="46.99" y1="59" x2="641.89" y2="59" stroke="#222222" stroke-width="0.50"/><text x="51.99" y="77" font-size="15" fill="#111111" xml:space="preserve" style="white-space: pre" font-family="Arial">+ask(documentId: UUID, pageNumber: Integer, body: PageQuestion): AnswerResponse</text></g><g class="entity" data-qualified-name="PageQuestion" id="ent0002" data-source-line="25"><rect x="263.94" y="125" width="124.99" height="77" rx="5" ry="5" fill="#7ACFF5" stroke="#222222" stroke-width="0.50"/><text x="302.40" y="144" font-size="15" fill="#111111" xml:space="preserve" style="white-space: pre" font-style="italic" font-family="Arial">«DTO»</text><text x="278.90" y="161" font-size="15" fill="#111111" xml:space="preserve" style="white-space: pre" font-family="Arial">PageQuestion</text><line x1="264.94" y1="169" x2="387.93" y2="169" stroke="#222222" stroke-width="0.50"/><text x="269.94" y="187" font-size="15" fill="#111111" xml:space="preserve" style="white-space: pre" font-family="Arial">+question: String</text><line x1="264.94" y1="194" x2="387.93" y2="194" stroke="#222222" stroke-width="0.50"/></g><g class="entity" data-qualified-name="CourseMaterialTutorService" id="ent0003" data-source-line="28"><rect x="419.33" y="125" width="660.22" height="77" rx="5" ry="5" fill="#7ACFF5" stroke="#222222" stroke-width="0.50"/><text x="700.66" y="144" font-size="15" fill="#111111" xml:space="preserve" style="white-space: pre" font-style="italic" font-family="Arial">«Java control»</text><text x="656.35" y="161" font-size="15" fill="#111111" xml:space="preserve" style="white-space: pre" font-family="Arial">CourseMaterialTutorService</text><line x1="420.33" y1="169" x2="1078.55" y2="169" stroke="#222222" stroke-width="0.50"/><line x1="420.33" y1="177" x2="1078.55" y2="177" stroke="#222222" stroke-width="0.50"/><text x="425.33" y="195" font-size="15" fill="#111111" xml:space="preserve" style="white-space: pre" font-family="Arial">+ask(userId: UUID, documentId: UUID, pageNumber: Integer, question: String): AnswerResponse</text></g><g class="entity" data-qualified-name="MaterialAccessPolicy" id="ent0004" data-source-line="31"><rect x="128.01" y="243" width="546.85" height="77" rx="5" ry="5" fill="#7ACFF5" stroke="#222222" stroke-width="0.50"/><text x="355.99" y="262" font-size="15" fill="#111111" xml:space="preserve" style="white-space: pre" font-style="italic" font-family="Arial">«Java policy»</text><text x="330.58" y="279" font-size="15" fill="#111111" xml:space="preserve" style="white-space: pre" font-family="Arial">MaterialAccessPolicy</text><line x1="129.01" y1="287" x2="673.86" y2="287" stroke="#222222" stroke-width="0.50"/><line x1="129.01" y1="295" x2="673.86" y2="295" stroke="#222222" stroke-width="0.50"/><text x="134.01" y="313" font-size="15" fill="#111111" xml:space="preserve" style="white-space: pre" font-family="Arial">+authorize(userId: UUID, documentId: UUID, pageNumber: Integer): PageScope</text></g><g class="entity" data-qualified-name="AiClient" id="ent0005" data-source-line="34"><rect x="705.35" y="243" width="520.18" height="77" rx="5" ry="5" fill="#7ACFF5" stroke="#222222" stroke-width="0.50"/><text x="910.00" y="262" font-size="15" fill="#111111" xml:space="preserve" style="white-space: pre" font-style="italic" font-family="Arial">«HTTP adapter»</text><text x="939.60" y="279" font-size="15" fill="#111111" xml:space="preserve" style="white-space: pre" font-family="Arial">AiClient</text><line x1="706.35" y1="287" x2="1224.53" y2="287" stroke="#222222" stroke-width="0.50"/><line x1="706.35" y1="295" x2="1224.53" y2="295" stroke="#222222" stroke-width="0.50"/><text x="711.35" y="313" font-size="15" fill="#111111" xml:space="preserve" style="white-space: pre" font-family="Arial">+askCourseMaterial(scope: PageScope, question: String): AnswerResponse</text></g><g class="entity" data-qualified-name="CourseMaterialTutorPipeline" id="ent0006" data-source-line="37"><rect x="757.03" y="413" width="416.82" height="77" rx="5" ry="5" fill="#7ACFF5" stroke="#222222" stroke-width="0.50"/><text x="909.15" y="432" font-size="15" fill="#111111" xml:space="preserve" style="white-space: pre" font-style="italic" font-family="Arial">«Python control»</text><text x="870.67" y="449" font-size="15" fill="#111111" xml:space="preserve" style="white-space: pre" font-family="Arial">CourseMaterialTutorPipeline</text><line x1="758.03" y1="457" x2="1172.85" y2="457" stroke="#222222" stroke-width="0.50"/><line x1="758.03" y1="465" x2="1172.85" y2="465" stroke="#222222" stroke-width="0.50"/><text x="763.03" y="483" font-size="15" fill="#111111" xml:space="preserve" style="white-space: pre" font-family="Arial">+run(scope: PageScope, question: String): AnswerResponse</text></g><g class="entity" data-qualified-name="PageScope" id="ent0007" data-source-line="40"><rect x="7" y="379" width="230.88" height="145" rx="5" ry="5" fill="#7ACFF5" stroke="#222222" stroke-width="0.50"/><text x="98.40" y="398" font-size="15" fill="#111111" xml:space="preserve" style="white-space: pre" font-style="italic" font-family="Arial">«DTO»</text><text x="83.66" y="415" font-size="15" fill="#111111" xml:space="preserve" style="white-space: pre" font-family="Arial">PageScope</text><line x1="8" y1="423" x2="236.88" y2="423" stroke="#222222" stroke-width="0.50"/><text x="13" y="441" font-size="15" fill="#111111" xml:space="preserve" style="white-space: pre" font-family="Arial">+documentId: UUID</text><text x="13" y="458" font-size="15" fill="#111111" xml:space="preserve" style="white-space: pre" font-family="Arial">+documentVersion: Integer</text><text x="13" y="475" font-size="15" fill="#111111" xml:space="preserve" style="white-space: pre" font-family="Arial">+courseOfferingId: UUID</text><text x="13" y="492" font-size="15" fill="#111111" xml:space="preserve" style="white-space: pre" font-family="Arial">+currentPage: Integer</text><text x="13" y="509" font-size="15" fill="#111111" xml:space="preserve" style="white-space: pre" font-family="Arial">+allowedPageNumbers: Integer[]</text><line x1="8" y1="516" x2="236.88" y2="516" stroke="#222222" stroke-width="0.50"/></g><g class="entity" data-qualified-name="GroundingValidator" id="ent0008" data-source-line="47"><rect x="697.55" y="565" width="535.77" height="77" rx="5" ry="5" fill="#7ACFF5" stroke="#222222" stroke-width="0.50"/><text x="907.90" y="584" font-size="15" fill="#111111" xml:space="preserve" style="white-space: pre" font-style="italic" font-family="Arial">«Python service»</text><text x="901.37" y="601" font-size="15" fill="#111111" xml:space="preserve" style="white-space: pre" font-family="Arial">GroundingValidator</text><line x1="698.55" y1="609" x2="1232.32" y2="609" stroke="#222222" stroke-width="0.50"/><line x1="698.55" y1="617" x2="1232.32" y2="617" stroke="#222222" stroke-width="0.50"/><text x="703.55" y="635" font-size="15" fill="#111111" xml:space="preserve" style="white-space: pre" font-family="Arial">+validate(answer: GeneratedAnswer, evidence: EvidenceSet): ValidationResult</text></g><g class="entity" data-qualified-name="GMN16" id="ent0017" data-source-line="60"><path d="M268.20,426 L268.20,477 A5,5 0 0 0 273.20,482 L657.68,482 A5,5 0 0 0 662.68,477 L662.68,431 L652.68,421 L469.44,421 L465.44,320.08 L461.44,421 L273.20,421 A5,5 0 0 0 268.20,426" fill="#FFF9D9" stroke="#555555" stroke-width="0.50"/><path d="M652.68,421 L652.68,428.50 A2.50,2.50 0 0 0 655.18,431 L662.68,431 L652.68,421" fill="#FFF9D9" stroke="#555555" stroke-width="0.50"/><text x="274.20" y="440" font-size="15" fill="#111111" xml:space="preserve" style="white-space: pre" font-family="Arial">Kiểm tra enrollment APPROVED, publication và READY</text><text x="274.20" y="457" font-size="15" fill="#111111" xml:space="preserve" style="white-space: pre" font-family="Arial">trước lời gọi AI và trước khi trả nội dung PDF.</text><text x="274.20" y="474" font-size="15" fill="#111111" xml:space="preserve" style="white-space: pre" font-family="Arial">Tutor này chỉ dành cho Student.</text></g><g class="link" data-entity-1="ent0001" data-entity-2="ent0002" id="lnk9" data-source-line="51" data-link-type="dependency"><path d="M326.44,84.46 C326.44,97.35 326.44,106.69 326.44,119.58" fill="none" stroke="#222222" stroke-width="1" stroke-dasharray="7,7"/><polygon points="326.44,124.58 330.44,115.58 326.44,119.58 322.44,115.58 326.44,124.58" fill="#222222" stroke="#222222" stroke-width="1"/></g><g class="link" data-entity-1="ent0001" data-entity-2="ent0003" id="lnk10" data-source-line="52" data-link-type="dependency"><path d="M531.11,84.46 C531.11,97.35 531.11,106.69 531.11,119.58" fill="none" stroke="#222222" stroke-width="1"/><polygon points="531.11,124.58 535.11,115.58 531.11,119.58 527.11,115.58 531.11,124.58" fill="#222222" stroke="#222222" stroke-width="1"/></g><g class="link" data-entity-1="ent0003" data-entity-2="ent0004" id="lnk11" data-source-line="53" data-link-type="dependency"><path d="M547.1,202.46 C547.1,215.35 547.1,224.69 547.1,237.58" fill="none" stroke="#222222" stroke-width="1"/><polygon points="547.10,242.58 551.10,233.58 547.10,237.58 543.10,233.58 547.10,242.58" fill="#222222" stroke="#222222" stroke-width="1"/></g><g class="link" data-entity-1="ent0004" data-entity-2="ent0007" id="lnk12" data-source-line="54" data-link-type="dependency"><path d="M182.94,320.08 C182.94,337.42 182.94,353.47 182.94,373.61" fill="none" stroke="#222222" stroke-width="1" stroke-dasharray="7,7"/><polygon points="182.94,378.61 186.94,369.61 182.94,373.61 178.94,369.61 182.94,378.61" fill="#222222" stroke="#222222" stroke-width="1"/></g><g class="link" data-entity-1="ent0003" data-entity-2="ent0005" id="lnk13" data-source-line="55" data-link-type="dependency"><path d="M892.45,202.46 C892.45,215.35 892.45,224.69 892.45,237.58" fill="none" stroke="#222222" stroke-width="1"/><polygon points="892.45,242.58 896.45,233.58 892.45,237.58 888.45,233.58 892.45,242.58" fill="#222222" stroke="#222222" stroke-width="1"/></g><g class="link" data-entity-1="ent0005" data-entity-2="ent0006" id="lnk14" data-source-line="56" data-link-type="dependency"><path d="M965.44,320.08 C965.44,347.8 965.44,380.03 965.44,407.78" fill="none" stroke="#222222" stroke-width="1" stroke-dasharray="7,7"/><polygon points="965.44,412.78 969.44,403.78 965.44,407.78 961.44,403.78 965.44,412.78" fill="#222222" stroke="#222222" stroke-width="1"/><text x="966.44" y="355" font-size="15" fill="#111111" xml:space="preserve" style="white-space: pre" font-family="Arial">internal HTTP</text></g><g class="link" data-entity-1="ent0006" data-entity-2="ent0008" id="lnk15" data-source-line="57" data-link-type="dependency"><path d="M965.44,490.25 C965.44,513.03 965.44,536.74 965.44,559.56" fill="none" stroke="#222222" stroke-width="1"/><polygon points="965.44,564.56 969.44,555.56 965.44,559.56 961.44,555.56 965.44,564.56" fill="#222222" stroke="#222222" stroke-width="1"/></g><?plantuml-src fLNDRYD54BxFKvJ4WKHahGsmGcjMaGOxtlMYJOOu6maX3ktkyhZbTlVGFxOCsjEUEF002255uWKuusCatiDlGdNx9sF7EFpCQQRhgwgllggQ_X0Afj1xR09NpBdFeSyS2Z0Q_13XHhh0564i4x8SGncaG71iN2bqSEGGuUeyRxyvFsvaRYHrHS0n21ome7p7QDyoobZuu3GzDKXkhPckZ1-dfsQyC1w_O7nKMXEqMA4wdSxpzlDTbB42xGhnB3tPC5BaqdA5DNGhLlSWw6TvgzDvzW1MZ_g0NOAyGaQGn-Ev8HDcAdK90wPSdP2I6lsiGZ3M3qtDqDy9EXrAZ_lLlM1Z92abK_ljFVazmccTJsfoxhsL_U2nourEcASrI4NvMOazFrC85hbdkjoICd7ZncgqS5htr4QWmme-gHzQfaVnyDEdcJSLU0DzuxqXdZ86bqPdMM85BHEimpVCOwpeEdX3FT3U6gKequiNhzc4aJCbPtPsTWO_P00VCJSw4eQ7CMhV5Kru-xRRFg4QIhm8upxQ9dIrnnBj2RcAMPDckSIl0hgO-RW9kNPJj5VeAgEfF-zMNEeeIjs-lbmd_6vrseGUgQZBZSiU-Zsq4ybnpPqlgwbJ3mxjFUr_MCWkXRylOyqcvnoTAuoIVBPcKwMl3Pb0KsXf5luBfUEbh3rkgllSkMmfIPwKxzNrTG5Ci8hOrAhVLkp8HVTQf7zJw1xn2rbXN3BANyoeEBshlmtwV-NSE6qFoAvYzRCRj2x5NWaNRJnHlnmCCAQhU_5WBJd5F5iUJ2apHL5i6k4svc--tT1xcVQKGjum9GKZHUwLSCl1N5EUB15un5AbJNY9jDnq89Qbdm1EwA-gEV4uNxtrq9CqgzXK4yb3VntAdXtUuqRZR6kx7e4_UN9sOBEo0qiNFVVDVxPtATQqbZFyIDZrQ6UR6O_kXsQm2P8QP3LTfd4PiaFOcE5Xyx9CquMt_dcQmVxQlfIB-VinUCi0TPGmJXtaHN5rUNCUbpVq2PSQ1fExstHxVvrv--VlY_al7DHY_gk4SZ7_IKBUJOYDRJIKzB7uupVGY_dF4aIWMwreTnfPeW_wxdO6VBYO_mZYxbOFwTtG3WMQ5j_8K0k81Vm5?></g></svg>