<svg xmlns="http://www.w3.org/2000/svg" version="1.1" viewBox="-100 -80 2127 963" width="2127" height="963"><rect x="-100" y="-80" width="2127" height="963" fill="#FFFFFF"/><defs/><g><g class="entity" data-qualified-name="PersonalAssistantController" id="ent0001" data-source-line="22"><rect x="434.58" y="7" width="479.31" height="77" rx="5" ry="5" fill="#7ACFF5" stroke="#222222" stroke-width="0.50"/><text x="616.69" y="26" font-size="15" fill="#111111" xml:space="preserve" style="white-space: pre" font-style="italic" font-family="Arial">«Java boundary»</text><text x="581.69" y="43" font-size="15" fill="#111111" xml:space="preserve" style="white-space: pre" font-family="Arial">PersonalAssistantController</text><line x1="435.58" y1="51" x2="912.89" y2="51" stroke="#222222" stroke-width="0.50"/><line x1="435.58" y1="59" x2="912.89" y2="59" stroke="#222222" stroke-width="0.50"/><text x="440.58" y="77" font-size="15" fill="#111111" xml:space="preserve" style="white-space: pre" font-family="Arial">+postMessage(id: UUID, body: MessageRequest): AssistantResponse</text></g><g class="entity" data-qualified-name="MessageRequest" id="ent0002" data-source-line="25"><rect x="547.06" y="125" width="218.34" height="94" rx="5" ry="5" fill="#7ACFF5" stroke="#222222" stroke-width="0.50"/><text x="632.19" y="144" font-size="15" fill="#111111" xml:space="preserve" style="white-space: pre" font-style="italic" font-family="Arial">«DTO»</text><text x="597.86" y="161" font-size="15" fill="#111111" xml:space="preserve" style="white-space: pre" font-family="Arial">MessageRequest</text><line x1="548.06" y1="169" x2="764.40" y2="169" stroke="#222222" stroke-width="0.50"/><text x="553.06" y="187" font-size="15" fill="#111111" xml:space="preserve" style="white-space: pre" font-family="Arial">+message: String</text><text x="553.06" y="204" font-size="15" fill="#111111" xml:space="preserve" style="white-space: pre" font-family="Arial">+selectedDocumentIds: UUID[]</text><line x1="548.06" y1="211" x2="764.40" y2="211" stroke="#222222" stroke-width="0.50"/></g><g class="entity" data-qualified-name="PersonalAssistantService" id="ent0003" data-source-line="29"><rect x="795.08" y="133.50" width="524.30" height="77" rx="5" ry="5" fill="#7ACFF5" stroke="#222222" stroke-width="0.50"/><text x="1008.45" y="152.50" font-size="15" fill="#111111" xml:space="preserve" style="white-space: pre" font-style="italic" font-family="Arial">«Java control»</text><text x="972.19" y="169.50" font-size="15" fill="#111111" xml:space="preserve" style="white-space: pre" font-family="Arial">PersonalAssistantService</text><line x1="796.08" y1="177.50" x2="1318.38" y2="177.50" stroke="#222222" stroke-width="0.50"/><line x1="796.08" y1="185.50" x2="1318.38" y2="185.50" stroke="#222222" stroke-width="0.50"/><text x="801.08" y="203.50" font-size="15" fill="#111111" xml:space="preserve" style="white-space: pre" font-family="Arial">+run(userId: UUID, id: UUID, request: MessageRequest): AssistantResponse</text></g><g class="entity" data-qualified-name="ConversationRepository" id="ent0004" data-source-line="32"><rect x="308.32" y="294" width="481.82" height="77" rx="5" ry="5" fill="#7ACFF5" stroke="#222222" stroke-width="0.50"/><text x="490.03" y="313" font-size="15" fill="#111111" xml:space="preserve" style="white-space: pre" font-style="italic" font-family="Arial">«Java repository»</text><text x="469.19" y="330" font-size="15" fill="#111111" xml:space="preserve" style="white-space: pre" font-family="Arial">ConversationRepository</text><line x1="309.32" y1="338" x2="789.14" y2="338" stroke="#222222" stroke-width="0.50"/><line x1="309.32" y1="346" x2="789.14" y2="346" stroke="#222222" stroke-width="0.50"/><text x="314.32" y="364" font-size="15" fill="#111111" xml:space="preserve" style="white-space: pre" font-family="Arial">+loadOwnedSnapshot(userId: UUID, id: UUID): ConversationSnapshot</text></g><g class="entity" data-qualified-name="AiClient" id="ent0005" data-source-line="35"><rect x="819.66" y="294" width="475.15" height="77" rx="5" ry="5" fill="#7ACFF5" stroke="#222222" stroke-width="0.50"/><text x="1001.79" y="313" font-size="15" fill="#111111" xml:space="preserve" style="white-space: pre" font-style="italic" font-family="Arial">«HTTP adapter»</text><text x="1031.39" y="330" font-size="15" fill="#111111" xml:space="preserve" style="white-space: pre" font-family="Arial">AiClient</text><line x1="820.66" y1="338" x2="1293.81" y2="338" stroke="#222222" stroke-width="0.50"/><line x1="820.66" y1="346" x2="1293.81" y2="346" stroke="#222222" stroke-width="0.50"/><text x="825.66" y="364" font-size="15" fill="#111111" xml:space="preserve" style="white-space: pre" font-family="Arial">+runAssistant(request: InternalAssistantRequest): AssistantResponse</text></g><g class="entity" data-qualified-name="SingleOrchestratorAgent" id="ent0006" data-source-line="38"><rect x="850.08" y="464" width="414.29" height="94" rx="5" ry="5" fill="#7ACFF5" stroke="#222222" stroke-width="0.50"/><text x="1004.68" y="483" font-size="15" fill="#111111" xml:space="preserve" style="white-space: pre" font-style="italic" font-family="Arial">«Python agent»</text><text x="975.10" y="500" font-size="15" fill="#111111" xml:space="preserve" style="white-space: pre" font-family="Arial">SingleOrchestratorAgent</text><line x1="851.08" y1="508" x2="1263.37" y2="508" stroke="#222222" stroke-width="0.50"/><line x1="851.08" y1="516" x2="1263.37" y2="516" stroke="#222222" stroke-width="0.50"/><text x="856.08" y="534" font-size="15" fill="#111111" xml:space="preserve" style="white-space: pre" font-family="Arial">+run(request: InternalAssistantRequest): AssistantResponse</text><text x="856.08" y="551" font-size="15" fill="#111111" xml:space="preserve" style="white-space: pre" font-family="Arial">-selectTool(message: String): ToolName</text></g><g class="entity" data-qualified-name="AskDocumentTool" id="ent0007" data-source-line="42"><rect x="7" y="599" width="448.46" height="77" rx="5" ry="5" fill="#7ACFF5" stroke="#222222" stroke-width="0.50"/><text x="185.36" y="618" font-size="15" fill="#111111" xml:space="preserve" style="white-space: pre" font-style="italic" font-family="Arial">«Python tool»</text><text x="170.79" y="635" font-size="15" fill="#111111" xml:space="preserve" style="white-space: pre" font-family="Arial">AskDocumentTool</text><line x1="8" y1="643" x2="454.46" y2="643" stroke="#222222" stroke-width="0.50"/><line x1="8" y1="651" x2="454.46" y2="651" stroke="#222222" stroke-width="0.50"/><text x="13" y="669" font-size="15" fill="#111111" xml:space="preserve" style="white-space: pre" font-family="Arial">+execute(args: AskArgs, scope: AuthorizedScope): AnswerResult</text></g><g class="entity" data-qualified-name="SummarizeDocumentTool" id="ent0008" data-source-line="45"><rect x="485.34" y="599" width="501.79" height="77" rx="5" ry="5" fill="#7ACFF5" stroke="#222222" stroke-width="0.50"/><text x="690.36" y="618" font-size="15" fill="#111111" xml:space="preserve" style="white-space: pre" font-style="italic" font-family="Arial">«Python tool»</text><text x="650.37" y="635" font-size="15" fill="#111111" xml:space="preserve" style="white-space: pre" font-family="Arial">SummarizeDocumentTool</text><line x1="486.34" y1="643" x2="986.13" y2="643" stroke="#222222" stroke-width="0.50"/><line x1="486.34" y1="651" x2="986.13" y2="651" stroke="#222222" stroke-width="0.50"/><text x="491.34" y="669" font-size="15" fill="#111111" xml:space="preserve" style="white-space: pre" font-family="Arial">+execute(args: SummaryArgs, scope: AuthorizedScope): SummaryResult</text></g><g class="entity" data-qualified-name="GenerateQuizTool" id="ent0009" data-source-line="48"><rect x="1017.42" y="599" width="467.62" height="77" rx="5" ry="5" fill="#7ACFF5" stroke="#222222" stroke-width="0.50"/><text x="1205.36" y="618" font-size="15" fill="#111111" xml:space="preserve" style="white-space: pre" font-style="italic" font-family="Arial">«Python tool»</text><text x="1190.78" y="635" font-size="15" fill="#111111" xml:space="preserve" style="white-space: pre" font-family="Arial">GenerateQuizTool</text><line x1="1018.42" y1="643" x2="1484.04" y2="643" stroke="#222222" stroke-width="0.50"/><line x1="1018.42" y1="651" x2="1484.04" y2="651" stroke="#222222" stroke-width="0.50"/><text x="1023.42" y="669" font-size="15" fill="#111111" xml:space="preserve" style="white-space: pre" font-family="Arial">+execute(args: QuizArgs, scope: AuthorizedScope): QuizDraftResult</text></g><g class="entity" data-qualified-name="ScopedRetriever" id="ent0010" data-source-line="51"><rect x="524.07" y="717" width="424.31" height="77" rx="5" ry="5" fill="#7ACFF5" stroke="#222222" stroke-width="0.50"/><text x="678.69" y="736" font-size="15" fill="#111111" xml:space="preserve" style="white-space: pre" font-style="italic" font-family="Arial">«Python service»</text><text x="680.36" y="753" font-size="15" fill="#111111" xml:space="preserve" style="white-space: pre" font-family="Arial">ScopedRetriever</text><line x1="525.07" y1="761" x2="947.38" y2="761" stroke="#222222" stroke-width="0.50"/><line x1="525.07" y1="769" x2="947.38" y2="769" stroke="#222222" stroke-width="0.50"/><text x="530.07" y="787" font-size="15" fill="#111111" xml:space="preserve" style="white-space: pre" font-family="Arial">+search(scope: AuthorizedScope, query: String): EvidenceSet</text></g><g class="entity" data-qualified-name="AssistantResponse" id="ent0011" data-source-line="54"><rect x="1325.05" y="260" width="178.35" height="145" rx="5" ry="5" fill="#7ACFF5" stroke="#222222" stroke-width="0.50"/><text x="1390.19" y="279" font-size="15" fill="#111111" xml:space="preserve" style="white-space: pre" font-style="italic" font-family="Arial">«DTO»</text><text x="1350.02" y="296" font-size="15" fill="#111111" xml:space="preserve" style="white-space: pre" font-family="Arial">AssistantResponse</text><line x1="1326.05" y1="304" x2="1502.40" y2="304" stroke="#222222" stroke-width="0.50"/><text x="1331.05" y="322" font-size="15" fill="#111111" xml:space="preserve" style="white-space: pre" font-family="Arial">+status: AssistantStatus</text><text x="1331.05" y="339" font-size="15" fill="#111111" xml:space="preserve" style="white-space: pre" font-family="Arial">+capability: Capability</text><text x="1331.05" y="356" font-size="15" fill="#111111" xml:space="preserve" style="white-space: pre" font-family="Arial">+answer: String?</text><text x="1331.05" y="373" font-size="15" fill="#111111" xml:space="preserve" style="white-space: pre" font-family="Arial">+quizDraft: QuizDraft?</text><text x="1331.05" y="390" font-size="15" fill="#111111" xml:space="preserve" style="white-space: pre" font-family="Arial">+citations: PageCitation[]</text><line x1="1326.05" y1="397" x2="1502.40" y2="397" stroke="#222222" stroke-width="0.50"/></g><g class="entity" data-qualified-name="GMN24" id="ent0025" data-source-line="76"><path d="M1515.40,612 L1515.40,663 A5,5 0 0 0 1520.40,668 L1862.07,668 A5,5 0 0 0 1867.07,663 L1867.07,617 L1857.07,607 L1520.40,607 A5,5 0 0 0 1515.40,612" fill="#FFF9D9" stroke="#555555" stroke-width="0.50"/><path d="M1857.07,607 L1857.07,614.50 A2.50,2.50 0 0 0 1859.57,617 L1867.07,617 L1857.07,607" fill="#FFF9D9" stroke="#555555" stroke-width="1"/><text x="1521.40" y="626" font-size="15" fill="#111111" xml:space="preserve" style="white-space: pre" font-family="Arial">Agent chỉ chọn một tool trong allowlist.</text><text x="1521.40" y="643" font-size="15" fill="#111111" xml:space="preserve" style="white-space: pre" font-family="Arial">Thiếu tham số phải trả NEEDS_CLARIFICATION;</text><text x="1521.40" y="660" font-size="15" fill="#111111" xml:space="preserve" style="white-space: pre" font-family="Arial">không tự mở rộng authorized scope.</text></g><g class="link" data-entity-1="ent0001" data-entity-2="ent0002" id="lnk12" data-source-line="62" data-link-type="dependency"><path d="M656.23,84.49 C656.23,97.26 656.23,106.6 656.23,119.91" fill="none" stroke="#222222" stroke-width="1" stroke-dasharray="7,7"/><polygon points="656.23,124.91 660.23,115.91 656.23,119.91 652.23,115.91 656.23,124.91" fill="#222222" stroke="#222222" stroke-width="1"/></g><g class="link" data-entity-1="ent0001" data-entity-2="ent0003" id="lnk13" data-source-line="63" data-link-type="dependency"><path d="M854.48,84.49 C854.48,100.02 854.48,112.86 854.48,128.36" fill="none" stroke="#222222" stroke-width="1"/><polygon points="854.48,133.36 858.48,124.36 854.48,128.36 850.48,124.36 854.48,133.36" fill="#222222" stroke="#222222" stroke-width="1"/></g><g class="link" data-entity-1="ent0003" data-entity-2="ent0004" id="lnk14" data-source-line="64" data-link-type="dependency"><path d="M807.37,210.97 C807.37,258.62 807.37,333 807.37,333 C807.37,333 806.06,333 795.43,333" fill="none" stroke="#222222" stroke-width="1"/><polygon points="790.43,333 799.43,337 795.43,333 799.43,329 790.43,333" fill="#222222" stroke="#222222" stroke-width="1"/></g><g class="link" data-entity-1="ent0003" data-entity-2="ent0005" id="lnk15" data-source-line="65" data-link-type="dependency"><path d="M1057.23,210.85 C1057.23,235.99 1057.23,263.6 1057.23,288.73" fill="none" stroke="#222222" stroke-width="1"/><polygon points="1057.23,293.73 1061.23,284.73 1057.23,288.73 1053.23,284.73 1057.23,293.73" fill="#222222" stroke="#222222" stroke-width="1"/></g><g class="link" data-entity-1="ent0005" data-entity-2="ent0006" id="lnk16" data-source-line="66" data-link-type="dependency"><path d="M1057.23,371.23 C1057.23,398.4 1057.23,429.89 1057.23,458.77" fill="none" stroke="#222222" stroke-width="1" stroke-dasharray="7,7"/><polygon points="1057.23,463.77 1061.23,454.77 1057.23,458.77 1053.23,454.77 1057.23,463.77" fill="#222222" stroke="#222222" stroke-width="1"/><text x="1058.23" y="440" font-size="15" fill="#111111" xml:space="preserve" style="white-space: pre" font-family="Arial">internal HTTP</text></g><g class="link" data-entity-1="ent0006" data-entity-2="ent0007" id="lnk17" data-source-line="67" data-link-type="dependency"><path d="M850.01,511 C651.5,511 381.89,511 381.89,511 C381.89,511 381.89,556.34 381.89,593.51" fill="none" stroke="#222222" stroke-width="1"/><polygon points="381.89,598.51 385.89,589.51 381.89,593.51 377.89,589.51 381.89,598.51" fill="#222222" stroke="#222222" stroke-width="1"/></g><g class="link" data-entity-1="ent0006" data-entity-2="ent0008" id="lnk18" data-source-line="68" data-link-type="dependency"><path d="M918.6,558.46 C918.6,571.78 918.6,581.1 918.6,593.84" fill="none" stroke="#222222" stroke-width="1"/><polygon points="918.60,598.84 922.60,589.84 918.60,593.84 914.60,589.84 918.60,598.84" fill="#222222" stroke="#222222" stroke-width="1"/></g><g class="link" data-entity-1="ent0006" data-entity-2="ent0009" id="lnk19" data-source-line="69" data-link-type="dependency"><path d="M1140.9,558.46 C1140.9,571.78 1140.9,581.1 1140.9,593.84" fill="none" stroke="#222222" stroke-width="1"/><polygon points="1140.90,598.84 1144.90,589.84 1140.90,593.84 1136.90,589.84 1140.90,598.84" fill="#222222" stroke="#222222" stroke-width="1"/></g><g class="link" data-entity-1="ent0007" data-entity-2="ent0010" id="lnk20" data-source-line="70" data-link-type="dependency"><path d="M231.23,676.3 C231.23,710.86 231.23,756 231.23,756 C231.23,756 380.79,756 518.89,756" fill="none" stroke="#222222" stroke-width="1"/><polygon points="523.89,756 514.89,752 518.89,756 514.89,760 523.89,756" fill="#222222" stroke="#222222" stroke-width="1"/></g><g class="link" data-entity-1="ent0008" data-entity-2="ent0010" id="lnk21" data-source-line="71" data-link-type="dependency"><path d="M736.23,676.46 C736.23,689.35 736.23,698.69 736.23,711.58" fill="none" stroke="#222222" stroke-width="1"/><polygon points="736.23,716.58 740.23,707.58 736.23,711.58 732.23,707.58 736.23,716.58" fill="#222222" stroke="#222222" stroke-width="1"/></g><g class="link" data-entity-1="ent0009" data-entity-2="ent0010" id="lnk22" data-source-line="72" data-link-type="dependency"><path d="M1251.23,676.3 C1251.23,710.86 1251.23,756 1251.23,756 C1251.23,756 1095.53,756 953.67,756" fill="none" stroke="#222222" stroke-width="1"/><polygon points="948.67,756 957.67,760 953.67,756 957.67,752 948.67,756" fill="#222222" stroke="#222222" stroke-width="1"/></g><g class="link" data-entity-1="ent0003" data-entity-2="ent0011" id="lnk23" data-source-line="73" data-link-type="dependency"><path d="M1307.09,210.8 C1307.09,240.71 1307.09,277 1307.09,277 C1307.09,277 1309.21,277 1319.78,277" fill="none" stroke="#222222" stroke-width="1" stroke-dasharray="7,7"/><polygon points="1324.78,277 1315.78,273 1319.78,277 1315.78,281 1324.78,277" fill="#222222" stroke="#222222" stroke-width="1"/></g><g class="link" data-entity-1="ent0006" data-entity-2="ent0025" id="lnk26" data-source-line="76" data-link-type="association"><path d="M1264.82,511 C1449.73,511 1691.23,511 1691.23,511 C1691.23,511 1691.23,569.1 1691.23,606.55" fill="none" stroke="#222222" stroke-width="1" stroke-dasharray="7,7"/></g><?plantuml-src dLRDZXj54BxFKvJ40KViMbaWGd6YHOD_Y17PDHw72qAeFLCxqtAxUzBTO-CW7e031uwSEF04I9oo1muyYT-4wldpUFop2NFOjQk-hk-hwghoV0WJ9j1Qx44ec37FOCuCHg0as0JXMsuo9WYZMSJZ9SGPZn0CMwO23NGC8ao7_k3by57NCmikKm8k8S8xbWaxKjBsbL0QFhZAdmR4rrgjI-V7-TDmtYYBNx1m4MkLoQX4ZKQZfuEdRPJI4UeIyIH_lCH93BaE1JRGVPVTGT3F_FvezEG0renwe2w7l416a8VZcOH5Qirb37TCcAOWmINQJOgWj4rKmp5l1LqdtEBnwjwm9L8fEHF7_G5_Wt3Lr9DVic-jvlFCuZXKCiSyRa1IucSn1dOZ43I6bibuhvIvjb1fYHgkcYUbYj1W2fyqZPh9XJD--jYpAWMhOAwiLQIJk-1SIS_BLS44jL6I2TyOReYLcaTQhOGWdkVFls8hHaU9ckdDzJNyv05yb2fZNw8nfBV3enwyUZKUN10gslIWj4_nTOR6Fkf17NUA9bMIRkFdadaVIcI3sMr5iInyFGYeQ39s9eE2b6CqK66sH6d7aIcel_k-3dcGJ81wnKEiCWcBt2eMdSbEPb2FwoHswUX2rdjbHALRaGBcwZj5AXEtIcygSbrRAdwXM7IxbXW5agKcKVQ46Y9jXgxGDQ_F-u9JIOZfnMms0HQnrA9kf5bhxjHvZIL1chLwbmm3xjhoLeS98JMZPFou89viQA0aCFUrMT__nmTmMTptJ2dHQNK3dN1cDuUx4fX5rHZEjnDarUw-yKSCQG0xJCV6iIvy-d019bGf1VSpEg1fCAF06PmkQTQeIHHDzgu4sNB97Enz-Og3cmSuIrIBz4kakMSMlyductVbSzW7o1naeDcTRUVe_D4KgTouoXT1oMQAUQe83J9gXSxn-1T0zwitZLiRhkXNGeOOOADtstU_lmZ8PJFJQ94WDpXNo58svu9RekZNdvs7vVTM4N_kJA-hJ1j9vuwGstoeY6D2FTOll-PBnJkt7BlTwzPkE0k_lBm-kPwyatlBdJg-LSwVgJQ2Lwy69_VKzFQ0byC9Rdzuft1vvFr1EuizEYfdJxJxt6lFTHvslpkzunDv37amHiT09mlhIdYugZn9hqJLpwkwErLahqWoJBRtl-H_VvMmtDx_RlC91ceJUbrXGgYr88AkDqluzkq_6RqGkXUQxVrla2RRjtzoGj8_k1aE1y4F_Q_zwNWqxlkpyUtDCs-H_FitHR7R-xzSx3z04u4BMmzciGgw7ie8dEx_0000?></g></svg>