<svg xmlns="http://www.w3.org/2000/svg" version="1.1" viewBox="-100 -80 2361 1257" width="2361" height="1257"><rect x="-100" y="-80" width="2361" height="1257" fill="#FFFFFF"/><defs/><g transform="translate(0 42)"><g><rect x="17.85" y="200" width="2079.08" height="795" rx="5" ry="5" fill="#FFFFFF" stroke="#FFFFFF" stroke-width="1"/><rect x="17.85" y="200" width="2079.08" height="795" rx="5" ry="5" fill="#00000000" stroke="#222222" stroke-width="1.50"/><rect x="770.93" y="364" width="1301.00" height="511" rx="5" ry="5" fill="#FFFFFF" stroke="#FFFFFF" stroke-width="1"/><rect x="770.93" y="364" width="1301.00" height="511" rx="5" ry="5" fill="#00000000" stroke="#222222" stroke-width="1.50"/><rect x="1204.14" y="608" width="842.80" height="222" rx="5" ry="5" fill="#FFFFFF" stroke="#FFFFFF" stroke-width="1"/><rect x="1204.14" y="608" width="842.80" height="222" rx="5" ry="5" fill="#00000000" stroke="#222222" stroke-width="1.50"/><g><title>Student</title><rect x="30.35" y="82" width="8" height="968" fill="#00000000" stroke="#00000000" stroke-width="0"/><line x1="33.85" y1="82" x2="33.85" y2="1050" stroke="#181818" stroke-width="0.50" stroke-dasharray="5,5"/></g><g><title>.Web</title><rect x="416.08" y="82" width="8" height="968" fill="#00000000" stroke="#00000000" stroke-width="0"/><line x1="419.58" y1="82" x2="419.58" y2="1050" stroke="#181818" stroke-width="0.50" stroke-dasharray="5,5"/></g><g><title/><rect x="414.58" y="113" width="10" height="874" fill="#FFFFFF" stroke="#181818" stroke-width="1"/></g><g><title>.Java Backend</title><rect x="783.43" y="82" width="8" height="968" fill="#00000000" stroke="#00000000" stroke-width="0"/><line x1="786.93" y1="82" x2="786.93" y2="1050" stroke="#181818" stroke-width="0.50" stroke-dasharray="5,5"/></g><g><title/><rect x="781.93" y="144" width="10" height="906" fill="#FFFFFF" stroke="#181818" stroke-width="1"/></g><g><title/><rect x="786.93" y="188" width="10" height="66" fill="#FFFFFF" stroke="#181818" stroke-width="1"/></g><g><title/><rect x="786.93" y="925" width="10" height="31" fill="#FFFFFF" stroke="#181818" stroke-width="1"/></g><g><title>.Single Agent</title><rect x="1216.64" y="82" width="8" height="968" fill="#00000000" stroke="#00000000" stroke-width="0"/><line x1="1220.14" y1="82" x2="1220.14" y2="1050" stroke="#181818" stroke-width="0.50" stroke-dasharray="5,5"/></g><g><title/><rect x="1215.14" y="308" width="10" height="559" fill="#FFFFFF" stroke="#181818" stroke-width="1"/></g><g><title/><rect x="1220.14" y="352" width="10" height="66" fill="#FFFFFF" stroke="#181818" stroke-width="1"/></g><g><title>.AI Tools</title><rect x="1623.18" y="82" width="8" height="968" fill="#00000000" stroke="#00000000" stroke-width="0"/><line x1="1626.68" y1="82" x2="1626.68" y2="1050" stroke="#181818" stroke-width="0.50" stroke-dasharray="5,5"/></g><g><title/><rect x="1621.68" y="472" width="10" height="190" fill="#FFFFFF" stroke="#181818" stroke-width="1"/></g><g><title/><rect x="1621.68" y="791" width="10" height="31" fill="#FFFFFF" stroke="#181818" stroke-width="1"/></g><g><title>.pgvector .ai.</title><rect x="1902.15" y="82" width="8" height="968" fill="#00000000" stroke="#00000000" stroke-width="0"/><line x1="1905.65" y1="82" x2="1905.65" y2="1050" stroke="#181818" stroke-width="0.50" stroke-dasharray="5,5"/></g><g><title/><rect x="1900.65" y="565" width="10" height="31" fill="#FFFFFF" stroke="#181818" stroke-width="1"/></g><g><title>.Model Provider</title><rect x="2022.44" y="82" width="8" height="968" fill="#00000000" stroke="#00000000" stroke-width="0"/><line x1="2025.94" y1="82" x2="2025.94" y2="1050" stroke="#181818" stroke-width="0.50" stroke-dasharray="5,5"/></g><g><title/><rect x="2020.94" y="503" width="10" height="31" fill="#FFFFFF" stroke="#181818" stroke-width="1"/></g><g><title/><rect x="2020.94" y="716" width="10" height="31" fill="#FFFFFF" stroke="#181818" stroke-width="1"/></g><text x="5" y="79" font-size="15" fill="#111111" xml:space="preserve" style="white-space: pre" font-family="Arial">Student</text><circle cx="33.85" cy="13.50" r="8" fill="#7ACFF5" stroke="#222222" stroke-width="0.50"/><path d="M33.85,21.50 L33.85,48.50 M20.85,29.50 L46.85,29.50 M33.85,48.50 L20.85,63.50 M33.85,48.50 L46.85,63.50" fill="#00000000" stroke="#222222" stroke-width="0.50"/><rect x="395.21" y="50" width="48.74" height="31" rx="5" ry="5" fill="#7ACFF5" stroke="#222222" stroke-width="0.50"/><text x="402.21" y="71" font-size="15" fill="#111111" xml:space="preserve" style="white-space: pre" font-family="Arial">:Web</text><rect x="730.74" y="50" width="112.39" height="31" rx="5" ry="5" fill="#7ACFF5" stroke="#222222" stroke-width="0.50"/><text x="737.74" y="71" font-size="15" fill="#111111" xml:space="preserve" style="white-space: pre" font-family="Arial">:Java Backend</text><rect x="1168.52" y="50" width="103.23" height="31" rx="5" ry="5" fill="#7ACFF5" stroke="#222222" stroke-width="0.50"/><text x="1175.52" y="71" font-size="15" fill="#111111" xml:space="preserve" style="white-space: pre" font-family="Arial">:Single Agent</text><rect x="1590.92" y="50" width="71.52" height="31" rx="5" ry="5" fill="#7ACFF5" stroke="#222222" stroke-width="0.50"/><text x="1597.92" y="71" font-size="15" fill="#111111" xml:space="preserve" style="white-space: pre" font-family="Arial">:AI Tools</text><rect x="1854.88" y="50" width="101.53" height="31" rx="5" ry="5" fill="#7ACFF5" stroke="#222222" stroke-width="0.50"/><text x="1861.88" y="71" font-size="15" fill="#111111" xml:space="preserve" style="white-space: pre" font-family="Arial">:pgvector (ai)</text><rect x="1966.41" y="50" width="119.04" height="31" rx="5" ry="5" fill="#7ACFF5" stroke="#222222" stroke-width="0.50"/><text x="1973.41" y="71" font-size="15" fill="#111111" xml:space="preserve" style="white-space: pre" font-family="Arial">:Model Provider</text><polygon points="402.58,109 412.58,113 402.58,117 406.58,113" fill="#222222" stroke="#222222" stroke-width="1"/><line x1="33.85" y1="113" x2="408.58" y2="113" stroke="#222222" stroke-width="1"/><text x="40.85" y="108" font-size="15" fill="#111111" xml:space="preserve" style="white-space: pre" font-weight="bold" font-family="Arial">1</text><text x="53.20" y="108" font-size="15" fill="#111111" xml:space="preserve" style="white-space: pre" font-family="Arial">Chọn Personal PDF và gửi yêu cầu tự nhiên</text><polygon points="769.93,140 779.93,144 769.93,148 773.93,144" fill="#222222" stroke="#222222" stroke-width="1"/><line x1="424.58" y1="144" x2="775.93" y2="144" stroke="#222222" stroke-width="1"/><text x="431.58" y="139" font-size="15" fill="#111111" xml:space="preserve" style="white-space: pre" font-weight="bold" font-family="Arial">2</text><text x="443.92" y="139" font-size="15" fill="#111111" xml:space="preserve" style="white-space: pre" font-family="Arial">POST /student/chat/conversations/{id}/messages</text><line x1="791.93" y1="175" x2="838.93" y2="175" stroke="#222222" stroke-width="1"/><line x1="838.93" y1="175" x2="838.93" y2="188" stroke="#222222" stroke-width="1"/><line x1="797.93" y1="188" x2="838.93" y2="188" stroke="#222222" stroke-width="1"/><polygon points="807.93,184 797.93,188 807.93,192 803.93,188" fill="#222222" stroke="#222222" stroke-width="1"/><text x="803.93" y="170" font-size="15" fill="#111111" xml:space="preserve" style="white-space: pre" font-weight="bold" font-family="Arial">3</text><text x="816.27" y="170" font-size="15" fill="#111111" xml:space="preserve" style="white-space: pre" font-family="Arial">Kiểm owner, READY, snapshot/version</text><path d="M22.85,200 L80.36,200 L80.36,209 L70.36,219 L17.85,219 L17.85,205 A5,5 0 0 1 22.85,200" fill="#FFFFFF" stroke="#222222" stroke-width="1.50"/><rect x="17.85" y="200" width="2079.08" height="795" rx="5" ry="5" fill="#00000000" stroke="#222222" stroke-width="1.50"/><text x="32.85" y="215" font-size="15" fill="#111111" xml:space="preserve" style="white-space: pre" font-weight="bold" font-family="Arial">alt</text><text x="95.36" y="216" font-size="15" fill="#111111" xml:space="preserve" style="white-space: pre" font-weight="bold" font-family="Arial">[Không được phép]</text><polygon points="435.58,250 425.58,254 435.58,258 431.58,254" fill="#222222" stroke="#222222" stroke-width="1"/><line x1="429.58" y1="254" x2="785.93" y2="254" stroke="#222222" stroke-width="1" stroke-dasharray="2,2"/><text x="441.58" y="249" font-size="15" fill="#111111" xml:space="preserve" style="white-space: pre" font-weight="bold" font-family="Arial">4</text><text x="453.92" y="249" font-size="15" fill="#111111" xml:space="preserve" style="white-space: pre" font-family="Arial">Lỗi access theo contract</text><line x1="17.85" y1="263" x2="2096.94" y2="263" stroke="#222222" stroke-width="1" stroke-dasharray="2,2"/><text x="22.85" y="279" font-size="15" fill="#111111" xml:space="preserve" style="white-space: pre" font-weight="bold" font-family="Arial">[Scope hợp lệ]</text><polygon points="1203.14,304 1213.14,308 1203.14,312 1207.14,308" fill="#222222" stroke="#222222" stroke-width="1"/><line x1="791.93" y1="308" x2="1209.14" y2="308" stroke="#222222" stroke-width="1"/><text x="798.93" y="303" font-size="15" fill="#111111" xml:space="preserve" style="white-space: pre" font-weight="bold" font-family="Arial">5</text><text x="811.27" y="303" font-size="15" fill="#111111" xml:space="preserve" style="white-space: pre" font-family="Arial">POST /internal/v1/personal-assistant/runs</text><line x1="1225.14" y1="339" x2="1272.14" y2="339" stroke="#222222" stroke-width="1"/><line x1="1272.14" y1="339" x2="1272.14" y2="352" stroke="#222222" stroke-width="1"/><line x1="1231.14" y1="352" x2="1272.14" y2="352" stroke="#222222" stroke-width="1"/><polygon points="1241.14,348 1231.14,352 1241.14,356 1237.14,352" fill="#222222" stroke="#222222" stroke-width="1"/><text x="1237.14" y="334" font-size="15" fill="#111111" xml:space="preserve" style="white-space: pre" font-weight="bold" font-family="Arial">6</text><text x="1249.48" y="334" font-size="15" fill="#111111" xml:space="preserve" style="white-space: pre" font-family="Arial">Nhận diện capability và lập tool args</text><path d="M775.93,364 L833.44,364 L833.44,373 L823.44,383 L770.93,383 L770.93,369 A5,5 0 0 1 775.93,364" fill="#FFFFFF" stroke="#222222" stroke-width="1.50"/><rect x="770.93" y="364" width="1301.00" height="511" rx="5" ry="5" fill="#00000000" stroke="#222222" stroke-width="1.50"/><text x="785.93" y="379" font-size="15" fill="#111111" xml:space="preserve" style="white-space: pre" font-weight="bold" font-family="Arial">alt</text><text x="848.44" y="380" font-size="15" fill="#111111" xml:space="preserve" style="white-space: pre" font-weight="bold" font-family="Arial">[Thiếu tham số bắt buộc]</text><polygon points="802.93,414 792.93,418 802.93,422 798.93,418" fill="#222222" stroke="#222222" stroke-width="1"/><line x1="796.93" y1="418" x2="1219.14" y2="418" stroke="#222222" stroke-width="1" stroke-dasharray="2,2"/><text x="808.93" y="413" font-size="15" fill="#111111" xml:space="preserve" style="white-space: pre" font-weight="bold" font-family="Arial">7</text><text x="821.27" y="413" font-size="15" fill="#111111" xml:space="preserve" style="white-space: pre" font-family="Arial">NEEDS_CLARIFICATION + missingFields</text><line x1="770.93" y1="427" x2="2071.94" y2="427" stroke="#222222" stroke-width="1" stroke-dasharray="2,2"/><text x="775.93" y="443" font-size="15" fill="#111111" xml:space="preserve" style="white-space: pre" font-weight="bold" font-family="Arial">[Đủ tham số]</text><polygon points="1609.68,468 1619.68,472 1609.68,476 1613.68,472" fill="#222222" stroke="#222222" stroke-width="1"/><line x1="1225.14" y1="472" x2="1615.68" y2="472" stroke="#222222" stroke-width="1"/><text x="1232.14" y="467" font-size="15" fill="#111111" xml:space="preserve" style="white-space: pre" font-weight="bold" font-family="Arial">8</text><text x="1244.48" y="467" font-size="15" fill="#111111" xml:space="preserve" style="white-space: pre" font-family="Arial">ask_document / summarize_document / generate_quiz</text><polygon points="2008.94,499 2018.94,503 2008.94,507 2012.94,503" fill="#222222" stroke="#222222" stroke-width="1"/><line x1="1631.68" y1="503" x2="2014.94" y2="503" stroke="#222222" stroke-width="1"/><text x="1638.68" y="498" font-size="15" fill="#111111" xml:space="preserve" style="white-space: pre" font-weight="bold" font-family="Arial">9</text><text x="1651.02" y="498" font-size="15" fill="#111111" xml:space="preserve" style="white-space: pre" font-family="Arial">Embed query cùng index version</text><polygon points="1642.68,530 1632.68,534 1642.68,538 1638.68,534" fill="#222222" stroke="#222222" stroke-width="1"/><line x1="1636.68" y1="534" x2="2019.94" y2="534" stroke="#222222" stroke-width="1" stroke-dasharray="2,2"/><text x="1648.68" y="529" font-size="15" fill="#111111" xml:space="preserve" style="white-space: pre" font-weight="bold" font-family="Arial">10</text><text x="1669.36" y="529" font-size="15" fill="#111111" xml:space="preserve" style="white-space: pre" font-family="Arial">Query vector</text><polygon points="1888.65,561 1898.65,565 1888.65,569 1892.65,565" fill="#222222" stroke="#222222" stroke-width="1"/><line x1="1631.68" y1="565" x2="1894.65" y2="565" stroke="#222222" stroke-width="1"/><text x="1638.68" y="560" font-size="15" fill="#111111" xml:space="preserve" style="white-space: pre" font-weight="bold" font-family="Arial">11</text><text x="1658.54" y="560" font-size="15" fill="#111111" xml:space="preserve" style="white-space: pre" font-family="Arial">Retrieval có filter authorized scope</text><polygon points="1642.68,592 1632.68,596 1642.68,600 1638.68,596" fill="#222222" stroke="#222222" stroke-width="1"/><line x1="1636.68" y1="596" x2="1899.65" y2="596" stroke="#222222" stroke-width="1" stroke-dasharray="2,2"/><text x="1648.68" y="591" font-size="15" fill="#111111" xml:space="preserve" style="white-space: pre" font-weight="bold" font-family="Arial">12</text><text x="1669.36" y="591" font-size="15" fill="#111111" xml:space="preserve" style="white-space: pre" font-family="Arial">Evidence theo trang</text><path d="M1209.14,608 L1266.64,608 L1266.64,617 L1256.64,627 L1204.14,627 L1204.14,613 A5,5 0 0 1 1209.14,608" fill="#FFFFFF" stroke="#222222" stroke-width="1.50"/><rect x="1204.14" y="608" width="842.80" height="222" rx="5" ry="5" fill="#00000000" stroke="#222222" stroke-width="1.50"/><text x="1219.14" y="623" font-size="15" fill="#111111" xml:space="preserve" style="white-space: pre" font-weight="bold" font-family="Arial">alt</text><text x="1281.64" y="624" font-size="15" fill="#111111" xml:space="preserve" style="white-space: pre" font-weight="bold" font-family="Arial">[Không đủ evidence]</text><polygon points="1236.14,658 1226.14,662 1236.14,666 1232.14,662" fill="#222222" stroke="#222222" stroke-width="1"/><line x1="1230.14" y1="662" x2="1620.68" y2="662" stroke="#222222" stroke-width="1" stroke-dasharray="2,2"/><text x="1242.14" y="657" font-size="15" fill="#111111" xml:space="preserve" style="white-space: pre" font-weight="bold" font-family="Arial">13</text><text x="1262.82" y="657" font-size="15" fill="#111111" xml:space="preserve" style="white-space: pre" font-family="Arial">NO_EVIDENCE</text><line x1="1204.14" y1="671" x2="2046.94" y2="671" stroke="#222222" stroke-width="1" stroke-dasharray="2,2"/><text x="1209.14" y="687" font-size="15" fill="#111111" xml:space="preserve" style="white-space: pre" font-weight="bold" font-family="Arial">[Có evidence]</text><polygon points="2008.94,712 2018.94,716 2008.94,720 2012.94,716" fill="#222222" stroke="#222222" stroke-width="1"/><line x1="1626.68" y1="716" x2="2014.94" y2="716" stroke="#222222" stroke-width="1"/><text x="1633.68" y="711" font-size="15" fill="#111111" xml:space="preserve" style="white-space: pre" font-weight="bold" font-family="Arial">14</text><text x="1654.36" y="711" font-size="15" fill="#111111" xml:space="preserve" style="white-space: pre" font-family="Arial">Evidence + output schema</text><polygon points="1637.68,743 1627.68,747 1637.68,751 1633.68,747" fill="#222222" stroke="#222222" stroke-width="1"/><line x1="1631.68" y1="747" x2="2019.94" y2="747" stroke="#222222" stroke-width="1" stroke-dasharray="2,2"/><text x="1643.68" y="742" font-size="15" fill="#111111" xml:space="preserve" style="white-space: pre" font-weight="bold" font-family="Arial">15</text><text x="1664.36" y="742" font-size="15" fill="#111111" xml:space="preserve" style="white-space: pre" font-family="Arial">Answer / Summary / QuizDraft</text><line x1="1626.68" y1="778" x2="1673.68" y2="778" stroke="#222222" stroke-width="1"/><line x1="1673.68" y1="778" x2="1673.68" y2="791" stroke="#222222" stroke-width="1"/><line x1="1632.68" y1="791" x2="1673.68" y2="791" stroke="#222222" stroke-width="1"/><polygon points="1642.68,787 1632.68,791 1642.68,795 1638.68,791" fill="#222222" stroke="#222222" stroke-width="1"/><text x="1638.68" y="773" font-size="15" fill="#111111" xml:space="preserve" style="white-space: pre" font-weight="bold" font-family="Arial">16</text><text x="1659.36" y="773" font-size="15" fill="#111111" xml:space="preserve" style="white-space: pre" font-family="Arial">Validate schema và grounding</text><polygon points="1236.14,818 1226.14,822 1236.14,826 1232.14,822" fill="#222222" stroke="#222222" stroke-width="1"/><line x1="1230.14" y1="822" x2="1620.68" y2="822" stroke="#222222" stroke-width="1" stroke-dasharray="2,2"/><text x="1242.14" y="817" font-size="15" fill="#111111" xml:space="preserve" style="white-space: pre" font-weight="bold" font-family="Arial">17</text><text x="1262.82" y="817" font-size="15" fill="#111111" xml:space="preserve" style="white-space: pre" font-family="Arial">Structured result + page citations</text><polygon points="802.93,863 792.93,867 802.93,871 798.93,867" fill="#222222" stroke="#222222" stroke-width="1"/><line x1="796.93" y1="867" x2="1214.14" y2="867" stroke="#222222" stroke-width="1" stroke-dasharray="2,2"/><text x="808.93" y="862" font-size="15" fill="#111111" xml:space="preserve" style="white-space: pre" font-weight="bold" font-family="Arial">18</text><text x="829.62" y="862" font-size="15" fill="#111111" xml:space="preserve" style="white-space: pre" font-family="Arial">AssistantResponse</text><line x1="791.93" y1="912" x2="838.93" y2="912" stroke="#222222" stroke-width="1"/><line x1="838.93" y1="912" x2="838.93" y2="925" stroke="#222222" stroke-width="1"/><line x1="797.93" y1="925" x2="838.93" y2="925" stroke="#222222" stroke-width="1"/><polygon points="807.93,921 797.93,925 807.93,929 803.93,925" fill="#222222" stroke="#222222" stroke-width="1"/><text x="803.93" y="907" font-size="15" fill="#111111" xml:space="preserve" style="white-space: pre" font-weight="bold" font-family="Arial">19</text><text x="824.62" y="907" font-size="15" fill="#111111" xml:space="preserve" style="white-space: pre" font-family="Arial">Revalidate; lưu message hoặc Quiz REVIEW_REQUIRED</text><polygon points="435.58,952 425.58,956 435.58,960 431.58,956" fill="#222222" stroke="#222222" stroke-width="1"/><line x1="429.58" y1="956" x2="785.93" y2="956" stroke="#222222" stroke-width="1" stroke-dasharray="2,2"/><text x="441.58" y="951" font-size="15" fill="#111111" xml:space="preserve" style="white-space: pre" font-weight="bold" font-family="Arial">20</text><text x="462.27" y="951" font-size="15" fill="#111111" xml:space="preserve" style="white-space: pre" font-family="Arial">AssistantResponse</text><polygon points="44.85,983 34.85,987 44.85,991 40.85,987" fill="#222222" stroke="#222222" stroke-width="1"/><line x1="38.85" y1="987" x2="413.58" y2="987" stroke="#222222" stroke-width="1" stroke-dasharray="2,2"/><text x="50.85" y="982" font-size="15" fill="#111111" xml:space="preserve" style="white-space: pre" font-weight="bold" font-family="Arial">21</text><text x="71.54" y="982" font-size="15" fill="#111111" xml:space="preserve" style="white-space: pre" font-family="Arial">Nội dung, citation, câu hỏi bổ sung hoặc Quiz draft</text><polygon points="44.85,1028 34.85,1032 44.85,1036 40.85,1032" fill="#222222" stroke="#222222" stroke-width="1"/><line x1="38.85" y1="1032" x2="418.58" y2="1032" stroke="#222222" stroke-width="1" stroke-dasharray="2,2"/><text x="50.85" y="1027" font-size="15" fill="#111111" xml:space="preserve" style="white-space: pre" font-weight="bold" font-family="Arial">22</text><text x="71.54" y="1027" font-size="15" fill="#111111" xml:space="preserve" style="white-space: pre" font-family="Arial">Hoàn tất tương tác</text><?plantuml-src bLRFRnj55BxlN_5K3ctL11Ea2ZML8Zds6amT9x5DAaxMU6UyEyhkp7PcrgcBE77WXA07XBWbhL15fOeWa12s48Ujyd_iVyARMSVPEcaYzc2FThxtlVU-zyE-3NiaPiQmJT3iISP4m1x2Y6X6GGem4OC3hZCI8qmHoiC4menJ1feaQSmqtD6CGS-lDtVyknzwjw4j35CaC5oAJHYeOluIulmVCFanXvWNysyp2F8J457-GdZwa8iKUHEWR4oosBIaC0qPImKVRBYd0gah9OyMbn-xfteP6AcsIN0OAfa9ke1zKc-qMlSlmQIYJBsFgIiDkqJKQhKUD1-iegeyzzrJGQ1UXWSy9SBS75SLV6rq7Jvc7IxOpPHBvBLy_KNDFqMkT9NqAEA6lHSiwVH_6bmNY8u8bKTSX30ciQwIn9Y4cQOCf3AHh5oCRl1UwQakIHWs42VnrVTz_ep1HbK-nnj89PY2ZO-yoFRyM4epaayzaXaficJ4b3lQRfyGWm4ApoEsmw1lCig4yTABkiAjpSTiT0k81lnUkVcSJ0XODPcW3c9Vh63wA4wCMOH8x33kj0Agjs4WPQmTm9rM06auOIx4EuJVTQZczWfaHrA6ywxa19DM3jFfx7ZU8YbOtx8Pm2OqecB-dO0zfhGKTaKqMp39Zo4ivcyuJFFNEEl5x5K6ffZ_ZYFFyzV2iwR8u3BUXBtT_W1gkcIk1H713oaco4Zi2j6rhpZzkfOmhKd8jEUiBgmVuKBv9W5vX5LQSrleopNGWgGwagPcMP338x61Hr7-9_RMs-TdfxYI0aYZ_DVKWv9eVPbHfvZ_n8440Jgqoqy2HcFiFlCOTYNq0ucDY6c_J276PRPas2ghiSo8spM8cjGc6xLqeSywqPfhWoBNL2OqsfOs5UDkLCpU2A1sKGe8I4f6FEPcwcIDyIu5WqK5ea9hRpCRHBoO_OiQHtQAYlbp61MptmoCicB-Su2WfPiBtRg-t-mF6vrwhzrgD-g3zcuNxa72CJuHjZYBgMLt6R_zePY_kY2lycsL3OPyH1yEgGoonBwlWSwIX2WSgUfBjC4V1iE6JpB-pD6KraY3tOKaFWuK1LmOQee_4NzZjRYWx2cSbz6QMEHwnV6-GvST_IvdSnklUymepYROca7-1unvZ4K17Db8skWeQ5jEPuVmAgzlMnyNLza3s00YTB1tMiaAmnP0TxjqNwtexj0_Q3VzRiDt62Tg0wEvsd8fnda0zq1c9iqCnXgnX2pGgphKXJx2r6hGTz9FyRIFCZSL6PjL1-Ss1oJcrAwjahcSNBVs-2BRg_Bf6vK59bEedc8QroT6cE9iGi1DER9bce9UtNhryndeCPqYskPVWbTcksVhvW9y2F7PQGQB9G2HB6P_1Iu_7Fc3jlzusFFtlsZt_ERbWRxAdTj0Y3ZVPrWa71KED1FXsZ8FFEKlCZlhttCSgVcFsDPOzgftwkIrqIk6aWZuJER7-AUfcFrYm9oTdfsWWSbFWly0?></g></g><g data-sequence-frame="true" fill="none" stroke="#222222" stroke-width="1.50"><rect x="1" y="1" width="2109" height="1095"/><path d="M1,1 H261 L246,31 H1 Z" fill="#FFFFFF"/></g><text x="11" y="22" font-size="15" font-weight="bold" fill="#111111" font-family="Arial">sd Trợ lý tài liệu cá nhân</text></svg>