<svg xmlns="http://www.w3.org/2000/svg" version="1.1" viewBox="-100 -80 2146 743" width="2146" height="743"><rect x="-100" y="-80" width="2146" height="743" fill="#FFFFFF"/><defs/><g><g class="cluster" data-qualified-name="PLATFORM" id="ent0001" data-source-line="23"><rect x="7" y="7" width="1880.51" height="568" rx="5" ry="5" fill="#FFFFFF" stroke="#94A3B8" stroke-width="1"/><text x="887.36" y="22" font-size="14" fill="#1F2937" xml:space="preserve" style="white-space: pre" font-weight="bold" font-family="Arial">Learning Platform</text></g><g class="cluster" data-qualified-name="PLATFORM.COURSE" id="ent0002" data-source-line="24"><rect x="39" y="217" width="389.32" height="135" rx="5" ry="5" fill="#FFFFFF" stroke="#94A3B8" stroke-width="1"/><text x="177.25" y="232" font-size="14" fill="#1F2937" xml:space="preserve" style="white-space: pre" font-weight="bold" font-family="Arial">Course Materials</text></g><g class="cluster" data-qualified-name="PLATFORM.PERSONAL" id="ent0006" data-source-line="30"><rect x="477.32" y="408" width="739.38" height="135" rx="5" ry="5" fill="#FFFFFF" stroke="#94A3B8" stroke-width="1"/><text x="778.27" y="423" font-size="14" fill="#1F2937" xml:space="preserve" style="white-space: pre" font-weight="bold" font-family="Arial">Personal Workspace</text></g><g class="cluster" data-qualified-name="PLATFORM.SERVICES" id="ent0012" data-source-line="38"><rect x="654.46" y="58" width="571.77" height="135" rx="5" ry="5" fill="#FFFFFF" stroke="#94A3B8" stroke-width="1"/><text x="880.04" y="73" font-size="14" fill="#1F2937" xml:space="preserve" style="white-space: pre" font-weight="bold" font-family="Arial">Learning Services</text></g><g class="cluster" data-qualified-name="PLATFORM.PROGRESS" id="ent0016" data-source-line="44"><rect x="1016.46" y="233" width="432.10" height="135" rx="5" ry="5" fill="#FFFFFF" stroke="#94A3B8" stroke-width="1"/><text x="1174.17" y="248" font-size="14" fill="#1F2937" xml:space="preserve" style="white-space: pre" font-weight="bold" font-family="Arial">Student Progress</text></g><g class="entity" data-qualified-name="PLATFORM.GMN29" id="ent0030" data-source-line="62"><path d="M1494.56,302 L1494.56,314 L1424.75,318 L1494.56,322 L1494.56,334 A5,5 0 0 0 1499.56,339 L1866.51,339 A5,5 0 0 0 1871.51,334 L1871.51,307 L1861.51,297 L1499.56,297 A5,5 0 0 0 1494.56,302" fill="#F8FAFC" stroke="#94A3B8" stroke-width="0.50"/><path d="M1861.51,297 L1861.51,304.50 A2.50,2.50 0 0 0 1864.01,307 L1871.51,307 L1861.51,297" fill="#F8FAFC" stroke="#94A3B8" stroke-width="0.50"/><text x="1500.56" y="315" font-size="14" fill="#1F2937" xml:space="preserve" style="white-space: pre" font-family="Arial">Không tự động lập kế hoạch bằng AI.</text><text x="1500.56" y="331" font-size="14" fill="#1F2937" xml:space="preserve" style="white-space: pre" font-family="Arial">Teacher có AI Quiz Studio nhưng không có chatbot/Tutor.</text></g><g class="entity" data-qualified-name="PLATFORM.COURSE.TEACHER" id="ent0003" data-source-line="25"><rect x="63" y="276" width="150.70" height="52" rx="5" ry="5" fill="#F8FAFC" stroke="#94A3B8" stroke-width="0.50"/><text x="73" y="299" font-size="14" fill="#1F2937" xml:space="preserve" style="white-space: pre" font-family="Arial">Teacher công bố</text><text x="73" y="315" font-size="14" fill="#1F2937" xml:space="preserve" style="white-space: pre" font-family="Arial">Course Material PDF</text></g><g class="entity" data-qualified-name="PLATFORM.COURSE.STUDENT" id="ent0004" data-source-line="26"><rect x="256.70" y="276" width="147.61" height="52" rx="5" ry="5" fill="#F1F5F9" stroke="#94A3B8" stroke-width="0.50"/><text x="266.70" y="299" font-size="14" fill="#1F2937" xml:space="preserve" style="white-space: pre" font-family="Arial">Student được duyệt</text><text x="266.70" y="315" font-size="14" fill="#1F2937" xml:space="preserve" style="white-space: pre" font-family="Arial">Xem PDF theo trang</text></g><g class="entity" data-qualified-name="PLATFORM.PERSONAL.PDF" id="ent0007" data-source-line="31"><rect x="501.32" y="467" width="107.14" height="52" rx="5" ry="5" fill="#F8FAFC" stroke="#94A3B8" stroke-width="0.50"/><text x="511.32" y="490" font-size="14" fill="#1F2937" xml:space="preserve" style="white-space: pre" font-family="Arial">Personal PDF</text><text x="511.32" y="506" font-size="14" fill="#1F2937" xml:space="preserve" style="white-space: pre" font-family="Arial">của Student</text></g><g class="entity" data-qualified-name="PLATFORM.PERSONAL.ASSISTANT" id="ent0008" data-source-line="32"><rect x="682.89" y="467" width="170.14" height="52" rx="5" ry="5" fill="#F0F7FF" stroke="#94A3B8" stroke-width="0.50"/><text x="692.89" y="490" font-size="14" fill="#1F2937" xml:space="preserve" style="white-space: pre" font-family="Arial">Personal Assistant</text><text x="692.89" y="506" font-size="14" fill="#1F2937" xml:space="preserve" style="white-space: pre" font-family="Arial">Hỏi · Tóm tắt · Tạo Quiz</text></g><g class="entity" data-qualified-name="PLATFORM.PERSONAL.AGENT" id="ent0009" data-source-line="33"><rect x="1047.78" y="467" width="144.92" height="52" rx="5" ry="5" fill="#F0F7FF" stroke="#94A3B8" stroke-width="0.50"/><text x="1057.78" y="490" font-size="14" fill="#1F2937" xml:space="preserve" style="white-space: pre" font-family="Arial">Single Agent + tools</text><text x="1057.78" y="506" font-size="14" fill="#1F2937" xml:space="preserve" style="white-space: pre" font-family="Arial">citation theo trang</text></g><g class="entity" data-qualified-name="PLATFORM.SERVICES.VIEWER" id="ent0013" data-source-line="39"><rect x="678.46" y="101" width="179.00" height="52" rx="5" ry="5" fill="#F0F7FF" stroke="#94A3B8" stroke-width="0.50"/><text x="688.46" y="124" font-size="14" fill="#1F2937" xml:space="preserve" style="white-space: pre" font-family="Arial">PDF Viewer</text><text x="688.46" y="140" font-size="14" fill="#1F2937" xml:space="preserve" style="white-space: pre" font-family="Arial">Page Note / Course Tutor</text></g><g class="entity" data-qualified-name="PLATFORM.SERVICES.SCORE" id="ent0014" data-source-line="40"><rect x="1038.25" y="101" width="163.98" height="52" rx="5" ry="5" fill="#F0FDF4" stroke="#94A3B8" stroke-width="0.50"/><text x="1048.25" y="124" font-size="14" fill="#1F2937" xml:space="preserve" style="white-space: pre" font-family="Arial">Java chấm Quiz</text><text x="1048.25" y="140" font-size="14" fill="#1F2937" xml:space="preserve" style="white-space: pre" font-family="Arial">Câu sai → trang nguồn</text></g><g class="entity" data-qualified-name="PLATFORM.PROGRESS.DASHBOARD" id="ent0017" data-source-line="45"><rect x="1040.46" y="292" width="159.55" height="52" rx="5" ry="5" fill="#F8FAFC" stroke="#94A3B8" stroke-width="0.50"/><text x="1050.46" y="315" font-size="14" fill="#1F2937" xml:space="preserve" style="white-space: pre" font-family="Arial">Dashboard</text><text x="1050.46" y="331" font-size="14" fill="#1F2937" xml:space="preserve" style="white-space: pre" font-family="Arial">Tiến độ / Streak / Goal</text></g><g class="entity" data-qualified-name="PLATFORM.PROGRESS.PLAN" id="ent0018" data-source-line="46"><rect x="1272.23" y="292" width="152.33" height="52" rx="5" ry="5" fill="#FFFBEA" stroke="#94A3B8" stroke-width="0.50"/><text x="1282.23" y="315" font-size="14" fill="#1F2937" xml:space="preserve" style="white-space: pre" font-family="Arial">Kế hoạch &amp; Lịch</text><text x="1282.23" y="331" font-size="14" fill="#1F2937" xml:space="preserve" style="white-space: pre" font-family="Arial">Student chủ động lập</text></g><g class="link" data-entity-1="ent0003" data-entity-2="ent0004" id="lnk5" data-source-line="27" data-link-type="dependency"><path d="M214.02,302 C227.99,302 237.56,302 251.48,302" fill="none" stroke="#64748B" stroke-width="1"/><polygon points="256.48,302 247.48,298 251.48,302 247.48,306 256.48,302" fill="#64748B" stroke="#64748B" stroke-width="1"/></g><g class="link" data-entity-1="ent0007" data-entity-2="ent0008" id="lnk10" data-source-line="34" data-link-type="dependency"><path d="M608.93,493 C631.25,493 652.66,493 677.48,493" fill="none" stroke="#64748B" stroke-width="1"/><polygon points="682.48,493 673.48,489 677.48,493 673.48,497 682.48,493" fill="#64748B" stroke="#64748B" stroke-width="1"/></g><g class="link" data-entity-1="ent0008" data-entity-2="ent0009" id="lnk11" data-source-line="35" data-link-type="dependency"><path d="M853.24,493 C912.6,493 985.91,493 1042.36,493" fill="none" stroke="#64748B" stroke-width="1"/><polygon points="1047.36,493 1038.36,489 1042.36,493 1038.36,497 1047.36,493" fill="#64748B" stroke="#64748B" stroke-width="1"/></g><g class="link" data-entity-1="ent0013" data-entity-2="ent0014" id="lnk15" data-source-line="41" data-link-type="dependency"/><g class="link" data-entity-1="ent0017" data-entity-2="ent0018" id="lnk19" data-source-line="47" data-link-type="dependency"/><g class="link" data-entity-1="ent0004" data-entity-2="ent0013" id="lnk20" data-source-line="50" data-link-type="dependency"><path d="M404.62,284 C518.75,284 724.51,284 724.51,284 C724.51,284 724.51,202.97 724.51,158.28" fill="none" stroke="#64748B" stroke-width="1"/><polygon points="724.51,153.28 720.51,162.28 724.51,158.28 728.51,162.28 724.51,153.28" fill="#64748B" stroke="#64748B" stroke-width="1"/><text x="511.39" y="290" font-size="14" fill="#1F2937" xml:space="preserve" style="white-space: pre" font-family="Arial">PDF đã public</text></g><g class="link" data-entity-1="ent0009" data-entity-2="ent0014" id="lnk21" data-source-line="51" data-link-type="dependency"><path d="M1193.18,493 C1217.03,493 1237.51,493 1237.51,493 C1237.51,493 1237.51,127 1237.51,127 C1237.51,127 1227.2,127 1207.64,127" fill="none" stroke="#64748B" stroke-width="1"/><polygon points="1202.64,127 1211.64,131 1207.64,127 1211.64,123 1202.64,127" fill="#64748B" stroke="#64748B" stroke-width="1"/><text x="888.96" y="242" font-size="14" fill="#1F2937" xml:space="preserve" style="white-space: pre" font-family="Arial">Quiz đã accept</text></g><g class="link" data-entity-1="ent0013" data-entity-2="ent0017" id="lnk22" data-source-line="52" data-link-type="dependency"><path d="M810.51,153.28 C810.51,205.21 810.51,316 810.51,316 C810.51,316 943.3,316 1035.07,316" fill="none" stroke="#64748B" stroke-width="1"/><polygon points="1040.07,316 1031.07,312 1035.07,316 1031.07,320 1040.07,316" fill="#64748B" stroke="#64748B" stroke-width="1"/><text x="879.46" y="149" font-size="14" fill="#1F2937" xml:space="preserve" style="white-space: pre" font-family="Arial">sự kiện xem trang</text></g><g class="link" data-entity-1="ent0014" data-entity-2="ent0017" id="lnk23" data-source-line="53" data-link-type="dependency"><path d="M1079.51,153.16 C1079.51,189.53 1079.51,250.02 1079.51,286.55" fill="none" stroke="#64748B" stroke-width="1"/><polygon points="1079.51,291.55 1083.51,282.55 1079.51,286.55 1075.51,282.55 1079.51,291.55" fill="#64748B" stroke="#64748B" stroke-width="1"/><text x="893.96" y="207" font-size="14" fill="#1F2937" xml:space="preserve" style="white-space: pre" font-family="Arial">hoàn tất Quiz</text></g><g class="link" data-entity-1="ent0004" data-entity-2="ent0007" id="lnk24" data-source-line="55" data-link-type="dependency"/><g class="link" data-entity-1="ent0002" data-entity-2="ent0006" id="lnk25" data-source-line="56" data-link-type="dependency"/><g class="link" data-entity-1="ent0002" data-entity-2="ent0012" id="lnk26" data-source-line="57" data-link-type="dependency"/><g class="link" data-entity-1="ent0006" data-entity-2="ent0012" id="lnk27" data-source-line="58" data-link-type="dependency"/><g class="link" data-entity-1="ent0012" data-entity-2="ent0016" id="lnk28" data-source-line="59" data-link-type="dependency"/><?plantuml-src ZLHDRzj64BthLmmIe3qKJY9RhJyA5A0aqdRYI2h9E0Mg7bRaIbo8sXMMoxXEaMjxwA5mU-gjRH3aL3H12XIG3WMg8F-3_IMTNOhKfvtwOflpvitCspVp8NH8J9MYHq1a43550vLA-Ya4CIKSA5TKZYLBA0I2Ay8ubH2JIv6gEvLaoFYOI3A27Wc60obI7ZP4B2HSQAAbU1AHK5mmFe0-YPFbI8oCwd9CGKWLYQL0IFiaZPM3LLjaHC6IZCJRunvxIg5QsnxC6xfTTNOFz_QN89QKuc8U_AIsNpkehmVzY0L3JfC4gaiX5mKYV13Jkf0XbNE6mvgrLp_O2dkFD2sXDZ2tdGF7SXhhg1iBTf233AYdBcCAigY-2VXVBEzhUWxha33KZxgxJ67I0Y6rKwhtbW9SX3IXOzZRNKOJFjGVQxkLcFOLA06I3I858TD3CC4hbN8Qk7L6YUIwP2ScgY_aw1QG13fdbk-qtOSedFc1Roe0IraDaKfqy4E2PaON9IQfqNxaUlPAoagIJqaGuGp1x4-irykcLrs-HWITfcEuVDjgdDXk-N1hL9vAGzmaU7lrxbKsVHv0c5vcq-zKbtz1Hve4L4G5A1HZOFWy_r7JRld8LtK-TWuDNr5Z1pU9xtnMO33shB8wReVAH71ixx6GmsHC0fghPBjUksMTNJzocOWjTNcGJLyIcFUUCs2drunOfbf9mXByYiETPDCV6Fpp5_YpDoDGsUGFPVxB9hyA-3nbJmsfvNcddc-PQUyv-uwpeHuplws1bl0ZT8Y84-oEAQBjiIwTTMolKUck2z7AOYQoA5t6ZxTBMlhEe_892sXk8SzspqyRjdU3ebZxdD4BAhkyWnjZ5Xdkmjn8Vgg4D5Jdf_PZOw2j4jmdJmW4KJPvCJB2eHDdlwMG40R_VljZFZtmGPfDV-9vPussQnksfbCpRFC2Erz6BCG7_QfmaGPk6RYmR4UAWSGRcB-_spvsRU-6UPiaYNg2oB3BVPPD_kRe-MpwCqxiAKd94Fyu5YGsR4tBEwctBRTvdQSU80540kqIHF01d6NJxuEeoulMK8_fovmVfu-poU_ZuXgqJ8TrspAKYqBhqsjeCNonSplc_c1mhjYHCT3Rgzbp6AUzc0M8pKrM8dErZypJv4WI17IiAWlP2-YYboD8ikbh63Ay11o-naDWdb5tOkYsfaHYzWlNg_H2cMehZQyFrzG-cf-vZU3y66n1b5FDtOsGydJS12gtOGDK-4Pto_K2v2TUz8i7U12P8wkq82iF2iDb3_IooMkCMATtC6Tndz_WbrnxRGqcW4VlNY5kcBDgG10HrHFghbaudKrvQ5gfFFiF?></g></svg>